<?xml version="1.0" encoding="UTF-8" standalone="no"?>
<svg
   xmlns:dc="http://purl.org/dc/elements/1.1/"
   xmlns:cc="http://creativecommons.org/ns#"
   xmlns:rdf="http://www.w3.org/1999/02/22-rdf-syntax-ns#"
   xmlns:svg="http://www.w3.org/2000/svg"
   xmlns="http://www.w3.org/2000/svg"
   viewBox="0 0 2615.0801 4306.4268"
   height="4306.4268"
   width="2615.0801"
   xml:space="preserve"
   id="svg2"
   version="1.1"><metadata
     id="metadata8"><rdf:RDF><cc:Work
         rdf:about=""><dc:format>image/svg+xml</dc:format><dc:type
           rdf:resource="http://purl.org/dc/dcmitype/StillImage" /></cc:Work></rdf:RDF></metadata><defs
     id="defs6" /><g
     transform="matrix(1.3333333,0,0,-1.3333333,0,4306.4267)"
     id="g10"><g
       transform="scale(0.1)"
       id="g12"><g
         transform="scale(1.98147)"
         id="g14"><path
           id="path16"
           style="fill:#ffffff;fill-opacity:1;fill-rule:nonzero;stroke:none"
           d="M 9898.25,0 H -0.00197139 V 16300.1 H 9898.25 V 0" /></g><g
         transform="scale(1.87259)"
         id="g18"><path
           id="path20"
           style="fill:#ffcfcf;fill-opacity:1;fill-rule:nonzero;stroke:none"
           d="m 7785.56,15748.3 c -537.6,352.3 -1084.96,551.7 -1673.88,106.2 -126.3,-367 -19.54,-936.8 56.23,-1270.1 0.86,-12 3.1,-23.8 5.34,-35.5 5.02,-54 -3.74,-101 28.84,-248.3 74.39,-336.3 56.23,-493.7 586.51,-530.4 6.04,-0.4 11.8,-0.4 17.79,-0.7 7.9,-0.7 15.53,-1.6 23.81,-2.2 246.98,-17 368.9,46.5 450.98,144.5 178.74,134.7 253.23,315.6 253.23,315.6 0,0 54.42,186.6 66.27,256.3 0,0 0,0 0,0.1 l 184.88,1264.5" /></g><g
         transform="scale(1.42449)"
         id="g22"><path
           id="path24"
           style="fill:#ffcfcf;fill-opacity:1;fill-rule:nonzero;stroke:none"
           d="m 4097.66,15467.2 -591.59,709.2 -903.38,87.6 c -152.64,36 -298.96,-79.8 -298.96,-236.6 v 0 l -536.68,105.9 c -220.7,35 -446.83,-0.5 -646.18,-101.5 v 0 c -100.35,-50.8 -93.7,-196.2 10.84,-237.7 l 824.18,-326.9 1155.78,-121.4 631.2,-325.1 354.79,446.5" /></g><g
         transform="scale(1.38502)"
         id="g26"><path
           id="path28"
           style="fill:#270a54;fill-opacity:1;fill-rule:nonzero;stroke:none"
           d="m 3200.41,15734 c -1.72,0 -3.45,0.1 -5.18,0.3 l -1188.73,124.9 c -4.46,0.5 -8.84,1.5 -13.02,3.2 l -847.65,336.2 c -25.22,10 -37.56,38.6 -27.56,63.8 9.98,25.3 38.85,37.6 63.82,27.6 l 841.42,-333.7 1182,-124.2 c 27,-2.8 46.64,-27 43.75,-54 -2.64,-25.3 -23.96,-44.1 -48.85,-44.1" /></g><g
         transform="scale(1.37628)"
         id="g30"><path
           id="path32"
           style="fill:#dfeef2;fill-opacity:1;fill-rule:nonzero;stroke:none"
           d="m 5963.7,13921.6 c -890.71,-406.4 -1464.18,580 -2323.56,1525 l 465.7,853.4 1504.72,-1043.9 c 881.82,441.8 1185.78,-994.3 353.14,-1334.5" /></g><g
         transform="scale(1.52194)"
         id="g34"><path
           id="path36"
           style="fill:#dfeef2;fill-opacity:1;fill-rule:nonzero;stroke:none"
           d="m 7520.87,13622.1 c -294.75,-187.4 -1200.12,-573.6 -2132.55,-1036.8 407.9,303.1 348.05,1307.5 -314.71,1210.7 404.09,331.9 1243.71,1807.9 1653.54,2231.4 263.81,272.6 661.85,13.6 772.7,-336.5 l 248.43,-732.6 c 75.89,-223.7 -17.61,-1202.7 -227.41,-1336.2" /></g><g
         transform="scale(1.40502)"
         id="g38"><path
           id="path40"
           style="fill:#270a54;fill-opacity:1;fill-rule:nonzero;stroke:none"
           d="m 3285.01,16127.1 c -1.28,0 -2.52,0 -3.79,0.1 l -949.32,73.9 c -26.71,2.1 -46.68,25.5 -44.6,52.1 2.08,26.8 25.71,46.8 52.08,44.6 l 949.32,-73.9 c 26.7,-2.1 46.69,-25.4 44.6,-52.1 -1.99,-25.4 -23.2,-44.7 -48.29,-44.7" /></g><g
         transform="scale(1.30618)"
         id="g42"><path
           id="path44"
           style="fill:#270a54;fill-opacity:1;fill-rule:nonzero;stroke:none"
           d="m 6296.12,15819 c -9.07,0 -18.18,2.3 -26.54,7.3 l -623.14,369.3 c -24.79,14.7 -32.95,46.8 -18.28,71.5 14.67,24.9 46.66,32.9 71.45,18.3 l 623.14,-369.4 c 24.8,-14.7 32.95,-46.7 18.29,-71.5 -9.73,-16.4 -27.09,-25.5 -44.92,-25.5" /></g><path
         id="path46"
         style="fill:#d8b8ab;fill-opacity:1;fill-rule:nonzero;stroke:none"
         d="m 8695.11,1688 v 0.1 c -18.48,148.7 -10,447.5 121.33,519.7 378.5,208 847.75,12.6 1363.06,87.2 305.1,44.1 1089.8,577 1089.8,577 1.1,0.6 2.2,1.2 3.3,1.7 144.7,77.7 326.2,21.1 418.4,-114.8 288.7,-424.9 530,-193.2 1136.1,-184.6 98.4,-51.7 278.6,-237.8 289.2,-472.1 4.8,-106.1 0,-424.9 0,-424.9 L 8695.11,1688 v 0" /><path
         id="path48"
         style="fill:#7f6161;fill-opacity:1;fill-rule:nonzero;stroke:none"
         d="M 13118.4,1283.3 H 8695.11 v 404.8 h 4423.29 v -404.8" /><path
         id="path50"
         style="fill:#270a54;fill-opacity:1;fill-rule:nonzero;stroke:none"
         d="m 11448.1,1619.9 h -2753 c -37.65,0 -68.11,30.5 -68.11,68.2 0,37.6 30.46,68.1 68.11,68.1 h 2753 c 37.6,0 68.1,-30.5 68.1,-68.1 0,-37.7 -30.5,-68.2 -68.1,-68.2" /><path
         id="path52"
         style="fill:#270a54;fill-opacity:1;fill-rule:nonzero;stroke:none"
         d="m 13116.3,1619.9 h -1227.5 c -37.7,0 -68.1,30.5 -68.1,68.2 0,37.6 30.4,68.1 68.1,68.1 h 1227.5 c 37.7,0 68.1,-30.5 68.1,-68.1 0,-37.7 -30.4,-68.2 -68.1,-68.2" /><g
         transform="scale(1.10609)"
         id="g54"><path
           id="path56"
           style="fill:#d8b8ab;fill-opacity:1;fill-rule:nonzero;stroke:none"
           d="m 16289.8,1526.11 v 0.08 c 10.2,134.44 5.5,404.58 -67.2,469.86 -209.4,188.05 -352.9,11.39 -638,78.83 -168.9,39.88 -435.9,521.66 -435.9,521.66 -0.6,0.55 -1.3,0.91 -1.8,1.54 -80.1,101.71 -484.8,106.78 -685.4,-103.79 -469,-492.63 -663.5,-166.89 -805.1,-166.89 -54.5,-46.74 -154.1,-214.99 -160,-426.82 -2.7,-95.93 0,-384.15 0,-384.15 l 2793.4,9.68 v 0" /></g><g
         transform="scale(1.10539)"
         id="g58"><path
           id="path60"
           style="fill:#7f6161;fill-opacity:1;fill-rule:nonzero;stroke:none"
           d="M 13503.7,1160.95 H 16300 v 366.2 h -2796.3 v -366.2" /></g><g
         transform="scale(1.10958)"
         id="g62"><path
           id="path64"
           style="fill:#270a54;fill-opacity:1;fill-rule:nonzero;stroke:none"
           d="m 16238.5,1459.93 h -1688.4 c -33.9,0 -61.3,27.49 -61.3,61.46 0,33.89 27.4,61.38 61.3,61.38 h 1688.4 c 34,0 61.5,-27.49 61.5,-61.38 0,-33.97 -27.5,-61.46 -61.5,-61.46" /></g><path
         id="path66"
         style="fill:#270a54;fill-opacity:1;fill-rule:nonzero;stroke:none"
         d="m 15679.5,1619.9 h -751.3 c -37.7,0 -68.2,30.5 -68.2,68.2 0,37.6 30.5,68.1 68.2,68.1 h 751.3 c 37.6,0 68.1,-30.5 68.1,-68.1 0,-37.7 -30.5,-68.2 -68.1,-68.2" /><g
         transform="scale(1.09618)"
         id="g68"><path
           id="path70"
           style="fill:#270a54;fill-opacity:1;fill-rule:nonzero;stroke:none"
           d="m 15027.1,1916.48 c -27,0 -51.9,17.79 -59.7,44.97 -9.5,33.03 9.6,67.42 42.5,76.91 482.8,139.21 897.9,178.43 1234.1,116.4 33.7,-6.29 56,-38.68 49.8,-72.43 -6.2,-33.66 -38.2,-56.29 -72.4,-49.81 -317,58.57 -713.1,20.16 -1177,-113.58 -5.9,-1.64 -11.6,-2.46 -17.3,-2.46" /></g><g
         transform="scale(1.03671)"
         id="g72"><path
           id="path74"
           style="fill:#270a54;fill-opacity:1;fill-rule:nonzero;stroke:none"
           d="m 15346.2,16300 814.4,-13528.04 c -1022.4,33.95 -669.3,-604.32 -1730.7,-475.84 L 12776,11631.8 12501.2,2361.23 c -671,-148.06 -1270.7,-40.51 -1808.5,292.95 l -507.8,13420.72 5161.3,225.1" /></g><g
         transform="scale(1.5776)"
         id="g76"><path
           id="path78"
           style="fill:#75d3c7;fill-opacity:1;fill-rule:nonzero;stroke:none"
           d="m 10646.6,15372 c -552.9,-1809.6 -632.8,-3449.8 -562,-4660.6 -819.58,-491.7 -2592.46,-651.6 -3391.72,-148 l -227.62,4836.4 c 307.24,443 1163.16,680.2 1163.16,680.2 0,0 -173.43,-243 233.27,-243 431.28,0 1089.56,463 1089.56,463 0,0 1205.35,-107.7 1695.35,-928" /></g><g
         transform="scale(1.55385)"
         id="g80"><path
           id="path82"
           style="fill:#dfeef2;fill-opacity:1;fill-rule:nonzero;stroke:none"
           d="m 7661.09,16300 c -283.69,-67.8 -841.52,-315.4 -1097.02,-617.3 -219.38,-3103.8 -308.08,-5992.01 -108.7,-8405.17 292.89,-121.51 627.28,-200.47 977.77,-247.39 173.5,4621.96 -677.48,8137.76 227.95,9269.86" /></g><g
         transform="scale(1.57609)"
         id="g84"><path
           id="path86"
           style="fill:#dfeef2;fill-opacity:1;fill-rule:nonzero;stroke:none"
           d="m 10721,15617.4 c -669.1,551.1 -1645.27,682.6 -1645.27,682.6 -119.4,-1618.9 -374.91,-1353.3 -174.41,-9394.63 580.67,47.78 1731.38,147.64 2065.68,251.19 0,1642.23 -246,6519.44 -246,8460.84" /></g><g
         transform="scale(1.67085)"
         id="g88"><path
           id="path90"
           style="fill:#ffcfcf;fill-opacity:1;fill-rule:nonzero;stroke:none"
           d="m 7270.37,16237.9 -67.69,-1055.3 c -225.33,-391.6 84.15,-405.5 512.67,-280 207.92,60.9 699.23,278.3 735.26,491.9 l 10.77,905.5 -1191.01,-62.1" /></g><g
         transform="scale(1.72628)"
         id="g92"><path
           id="path94"
           style="fill:#ffcfcf;fill-opacity:1;fill-rule:nonzero;stroke:none"
           d="m 6733.51,16016.5 c 34.99,-161.4 16.86,-301.2 -40.43,-312.1 -57.29,-11 -132.14,111 -167.12,272.5 -34.99,161.4 -16.92,301.2 40.37,312.1 57.35,11 132.13,-111 167.18,-272.5" /></g><g
         transform="scale(1.97416)"
         id="g96"><path
           id="path98"
           style="fill:#270a54;fill-opacity:1;fill-rule:nonzero;stroke:none"
           d="m 7198.96,14034.6 c -61.65,64.4 -109.11,414.8 -66.21,511.5 l 130.34,271.8 c -395.97,-70.9 -701.21,357.2 -1313.57,274.4 -448.55,207 1069.72,1207.7 1622.96,-191.1 l -255.85,-740.9 -117.67,-125.7" /></g><g
         transform="scale(1.85492)"
         id="g100"><path
           id="path102"
           style="fill:#270a54;fill-opacity:1;fill-rule:nonzero;stroke:none"
           d="m 6181.72,14936.8 c 62.37,80.1 92.67,570 61.67,678.3 l -79.79,260.6 c -38.22,125.3 103.56,197.1 285.73,197.1 0,0 -104.48,227.2 -313.17,111.6 -127.17,-70.5 -181.62,-213.4 -140.44,-344.9 l 109.17,-652.5 76.83,-250.2" /></g><g
         transform="scale(1.65226)"
         id="g104"><path
           id="path106"
           style="fill:#270a54;fill-opacity:1;fill-rule:nonzero;stroke:none"
           d="m 7777.52,15561.8 c -28.51,0 -57.43,1.2 -86.97,3.6 -22.7,1.9 -39.58,21.8 -37.77,44.5 1.82,22.6 21.91,39.2 44.43,37.7 517.41,-42.3 743.28,313.1 840.42,618.6 6.9,21.8 30.08,33.8 51.75,26.8 21.73,-6.9 33.71,-30 26.81,-51.7 -140.23,-441 -436.25,-679.5 -838.67,-679.5" /></g><g
         transform="scale(1.72312)"
         id="g108"><path
           id="path110"
           style="fill:#ffcfcf;fill-opacity:1;fill-rule:nonzero;stroke:none"
           d="m 8192.12,15840.6 c -41.96,-193.5 -23.22,-241.1 45.44,-254.2 68.65,-13.1 158.32,133 200.27,326.5 41.96,193.4 20.32,360.9 -48.34,374 -68.71,13.1 -155.41,-252.9 -197.37,-446.3" /></g><g
         transform="scale(1.72763)"
         id="g112"><path
           id="path114"
           style="fill:#270a54;fill-opacity:1;fill-rule:nonzero;stroke:none"
           d="m 8202.74,15505.2 c -16.49,0 -31.89,10.5 -37.39,27 -6.89,20.7 4.28,43 24.95,49.9 82.71,27.5 152.58,138.8 186.96,297.6 32.88,151.6 22.11,273.3 -5.56,315.1 -4.05,6.2 -8.39,10.2 -11.52,10.8 -7.46,2 -34.55,-7.8 -96.78,-181.5 -7.35,-20.5 -30.04,-31.1 -50.41,-23.9 -20.55,7.3 -31.2,30 -23.85,50.4 47.35,132.2 96.61,249.4 185.86,232.5 17.13,-3.3 41.97,-13.7 62.46,-44.8 44.97,-68 51.57,-215.3 16.9,-375.3 -19.39,-89.5 -81.5,-303.2 -239.11,-355.7 -4.17,-1.4 -8.4,-2.1 -12.51,-2.1" /></g><g
         transform="scale(1.73325)"
         id="g116"><path
           id="path118"
           style="fill:#270a54;fill-opacity:1;fill-rule:nonzero;stroke:none"
           d="m 7203.56,15749.5 c -11.94,0 -23.31,5.4 -30.81,14.9 -8.36,10.6 -10.73,24.6 -6.28,37.4 l 162.47,466.9 c 7.09,20.4 29.48,31.3 50.02,24.2 20.48,-7.2 31.33,-29.6 24.17,-50.1 l -142.1,-408.4 176.78,18.5 c 21.69,2.6 40.96,-13.4 43.21,-34.9 2.25,-21.6 -13.39,-40.9 -34.97,-43.2 l -238.39,-25 c -1.39,-0.2 -2.77,-0.3 -4.1,-0.3" /></g><g
         transform="scale(1.65811)"
         id="g120"><path
           id="path122"
           style="fill:#270a54;fill-opacity:1;fill-rule:nonzero;stroke:none"
           d="m 7726.31,16098 c -76.65,0 -154.21,20.8 -219.1,64.1 -18.88,12.6 -24.01,38.2 -11.4,57 12.6,18.9 38.11,24 56.99,11.4 112.54,-75.1 307.03,-70.4 399.13,48.3 13.93,17.9 39.68,21.2 57.65,7.3 17.98,-13.9 21.17,-39.7 7.3,-57.7 -66.04,-85 -177.37,-130.4 -290.57,-130.4" /></g><g
         transform="scale(1.74061)"
         id="g124"><path
           id="path126"
           style="fill:#270a54;fill-opacity:1;fill-rule:nonzero;stroke:none"
           d="m 6895.99,16200.7 c 0,-54.9 39.06,-99.3 87.21,-99.3 48.14,0 87.21,44.4 87.21,99.3 0,54.8 -39.07,99.3 -87.21,99.3 -48.15,0 -87.21,-44.5 -87.21,-99.3" /></g><g
         transform="scale(1.74061)"
         id="g128"><path
           id="path130"
           style="fill:#270a54;fill-opacity:1;fill-rule:nonzero;stroke:none"
           d="m 7605.97,16200.7 c 0,-54.9 39.07,-99.3 87.21,-99.3 48.15,0 87.21,44.4 87.21,99.3 0,54.8 -39.06,99.3 -87.21,99.3 -48.14,0 -87.21,-44.5 -87.21,-99.3" /></g><g
         transform="scale(1.65192)"
         id="g132"><path
           id="path134"
           style="fill:#270a54;fill-opacity:1;fill-rule:nonzero;stroke:none"
           d="m 8548.6,15525.4 c -0.9,0 -1.81,0.1 -2.66,0.1 -22.76,1.5 -40.01,21.1 -38.56,43.8 l 44.07,691.5 c 1.45,22.7 20.76,39.2 43.77,38.6 22.76,-1.5 40.01,-21.1 38.56,-43.8 l -44.07,-691.6 c -1.46,-21.8 -19.56,-38.6 -41.11,-38.6" /></g><path
         id="path136"
         style="fill:#ffffff;fill-opacity:1;fill-rule:nonzero;stroke:none"
         d="m 13326.9,11286.8 c -34.1,0 -63.5,25.5 -67.6,60.2 l -259.9,2231.2 c -4.4,37.3 22.4,71.2 59.8,75.5 38.1,4.2 71.1,-22.4 75.5,-59.8 l 259.9,-2231.2 c 4.4,-37.3 -22.4,-71.1 -59.8,-75.5 -2.6,-0.3 -5.3,-0.4 -7.9,-0.4" /><g
         transform="scale(1.52051)"
         id="g138"><path
           id="path140"
           style="fill:#dfeef2;fill-opacity:1;fill-rule:nonzero;stroke:none"
           d="m 10258.8,14994.7 c 199.5,1304.1 706.7,1305.3 706.7,1305.3 861.5,-558.7 877,-3105.8 759.1,-4231.1 -225.6,-404.6 -1318.9,747.1 -1430.3,949 0,0 -110.3,1488.2 -35.5,1976.8" /></g><g
         transform="scale(1.3146)"
         id="g142"><path
           id="path144"
           style="fill:#d8b8ab;fill-opacity:1;fill-rule:nonzero;stroke:none"
           d="m 9220.06,13034.9 h 2514.04 l 278.6,3265.1 H 9498.62 l -278.56,-3265.1" /></g><g
         transform="scale(1.05545)"
         id="g146"><path
           id="path148"
           style="fill:#270a54;fill-opacity:1;fill-rule:nonzero;stroke:none"
           d="m 14615.3,16171 h -1779.7 c -35.6,0 -64.5,28.9 -64.5,64.5 0,35.7 28.9,64.5 64.5,64.5 h 1779.7 c 35.6,0 64.5,-28.8 64.5,-64.5 0,-35.6 -28.9,-64.5 -64.5,-64.5" /></g><g
         transform="scale(1.31878)"
         id="g150"><path
           id="path152"
           style="fill:#270a54;fill-opacity:1;fill-rule:nonzero;stroke:none"
           d="m 11974.6,16196.7 h -1539.2 c -28.5,0 -51.6,23.1 -51.6,51.7 0,28.5 23.1,51.6 51.6,51.6 h 1539.2 c 28.6,0 51.7,-23.1 51.7,-51.6 0,-28.6 -23.1,-51.7 -51.7,-51.7" /></g><g
         transform="scale(1.31878)"
         id="g154"><path
           id="path156"
           style="fill:#270a54;fill-opacity:1;fill-rule:nonzero;stroke:none"
           d="m 10093.1,16196.7 h -624.57 c -28.51,0 -51.64,23.1 -51.64,51.7 0,28.5 23.13,51.6 51.64,51.6 h 624.57 c 28.5,0 51.7,-23.1 51.7,-51.6 0,-28.6 -23.2,-51.7 -51.7,-51.7" /></g><g
         transform="scale(1.31899)"
         id="g158"><path
           id="path160"
           style="fill:#270a54;fill-opacity:1;fill-rule:nonzero;stroke:none"
           d="m 9340.91,14715.5 c -1.44,0 -2.96,0 -4.4,0.2 -28.51,2.4 -49.51,27.4 -47.08,55.9 l 126.16,1478.5 c 2.35,28.4 26.45,49.9 55.79,47 28.44,-2.4 49.51,-27.4 47.09,-55.8 l -126.16,-1478.5 c -2.27,-26.9 -24.87,-47.3 -51.4,-47.3" /></g><g
         transform="scale(1.05545)"
         id="g162"><path
           id="path164"
           style="fill:#270a54;fill-opacity:1;fill-rule:nonzero;stroke:none"
           d="m 12484.6,16171 h -1000.7 c -35.7,0 -64.5,28.9 -64.5,64.5 0,35.7 28.8,64.5 64.5,64.5 h 1000.7 c 35.7,0 64.6,-28.8 64.6,-64.5 0,-35.6 -28.9,-64.5 -64.6,-64.5" /></g><g
         transform="scale(1.23319)"
         id="g166"><path
           id="path168"
           style="fill:#dfeef2;fill-opacity:1;fill-rule:nonzero;stroke:none"
           d="m 11535.8,15949.9 c 844.7,51 1156.9,101 1156.9,101 0,0 1346.4,249.1 1564.6,-199.4 167.4,-344 334.7,-932.3 97.4,-1169.6 -127.8,-127.8 -635.8,-140.6 -1071.6,-115.8 -408.8,23.3 -1965.9,177.1 -1965.9,177.1 v 311.7 c 0,0 120.1,887.7 218.6,895" /></g><g
         transform="scale(1.20767)"
         id="g170"><path
           id="path172"
           style="fill:#ffcfcf;fill-opacity:1;fill-rule:nonzero;stroke:none"
           d="m 11079.1,15372.9 h 718.4 c 354.4,101.5 368.8,722.7 164.3,927.1 l -1099.6,-13.2 216.9,-913.9" /></g><g
         transform="scale(1.25064)"
         id="g174"><path
           id="path176"
           style="fill:#ffcfcf;fill-opacity:1;fill-rule:nonzero;stroke:none"
           d="m 10761.6,15630.3 613.2,97 -122.1,254.9 c -54.3,145.1 -206,276.5 -372.9,276.5 l -504.4,-33.5 c -592.2,74.8 -568.94,-118.5 -175.9,-293.5 l 562.1,-301.4" /></g><g
         transform="scale(1.24491)"
         id="g178"><path
           id="path180"
           style="fill:#ffcfcf;fill-opacity:1;fill-rule:nonzero;stroke:none"
           d="m 10001.9,16300 c -143.66,-39.4 -260.62,-94.9 -265.68,-231.4 -13.33,-362.5 -80.81,-703 -45.62,-1070.2 26.58,-105.7 120.33,-180.5 229.25,-182.2 199.95,-3.1 585.55,8.4 827.95,97 l 134.4,1178.5 c -323.5,-69.2 -880.3,-121.9 -880.3,208.3" /></g><g
         transform="scale(1.24932)"
         id="g182"><path
           id="path184"
           style="fill:#270a54;fill-opacity:1;fill-rule:nonzero;stroke:none"
           d="m 10285.7,15938.6 c -151.4,0 -282,19 -359.33,98.9 -49.47,51.1 -70.76,121.6 -63.32,209.5 2.56,30.1 28.1,53 58.99,49.7 29.94,-2.5 52.19,-28.9 49.63,-58.9 -4.72,-55.9 6.09,-96.6 33.03,-124.5 77,-79.6 285,-68.8 486,-58.3 70.4,3.7 143.3,7.5 211.8,7.5 30.1,0 54.6,-24.3 54.6,-54.5 0,-30.1 -24.5,-54.5 -54.6,-54.5 -65.7,0 -137.1,-3.8 -206.1,-7.4 -72.4,-3.7 -143.6,-7.5 -210.7,-7.5" /></g><g
         transform="scale(1.14365)"
         id="g186"><path
           id="path188"
           style="fill:#270a54;fill-opacity:1;fill-rule:nonzero;stroke:none"
           d="m 10855.9,16074.8 c -38.1,0 -76.9,0.4 -116.4,1.1 -32.9,0.7 -59.1,27.9 -58.4,60.9 0.7,32.4 27.2,58.3 59.6,58.3 0.3,0 0.7,0 1.1,0 394.2,-8.3 710.6,24.1 940,95.3 31.6,9.6 64.8,-7.9 74.5,-39.3 9.7,-31.4 -7.9,-64.7 -39.3,-74.5 -218.2,-67.7 -507.5,-101.8 -861.1,-101.8" /></g><g
         transform="scale(1.23788)"
         id="g190"><path
           id="path192"
           style="fill:#270a54;fill-opacity:1;fill-rule:nonzero;stroke:none"
           d="m 9920.32,14852.1 c -42.25,0 -101.63,14.6 -151.87,81.8 -184.43,246.3 -97.11,1048.2 -10.91,1320.9 9.13,28.9 39.91,45.2 68.99,35.8 29,-9.1 45.08,-40 35.87,-69 -92.34,-292.2 -152.28,-1026.2 -5.82,-1221.7 25.85,-34.6 50.49,-37.6 65.35,-37.7 29.25,-0.6 55.5,-23.5 56.15,-53.9 0.64,-30.3 -23.51,-55.5 -53.96,-56.2 -1.22,0 -2.51,0 -3.8,0" /></g><g
         transform="scale(1.22909)"
         id="g194"><path
           id="path196"
           style="fill:#270a54;fill-opacity:1;fill-rule:nonzero;stroke:none"
           d="m 11753.4,15960.6 c -30.6,0 -55.4,24.9 -55.4,55.4 0,30.7 24.8,55.5 55.4,55.5 519.5,0 857.2,63.6 1128.5,114.6 338.1,63.7 605.1,113.9 1026.8,12.5 29.8,-7.1 48.1,-37.1 40.9,-66.9 -7.1,-29.7 -36.8,-47.8 -66.8,-40.9 -398.7,95.9 -642.8,50.1 -980.4,-13.6 -275.8,-52 -619,-116.6 -1149,-116.6" /></g><g
         transform="scale(1.11212)"
         id="g198"><path
           id="path200"
           style="fill:#270a54;fill-opacity:1;fill-rule:nonzero;stroke:none"
           d="m 15048.5,16088.2 c -440,0 -882,28.7 -1319.8,85.9 -33.5,4.3 -57.2,35.1 -52.8,68.6 4.3,33.6 35.6,57.3 68.6,52.8 595.7,-77.7 1199.6,-102.1 1794.8,-72.7 34.5,2.6 62.6,-24.2 64.3,-58 1.7,-33.8 -24.4,-62.6 -58.2,-64.3 -165,-8.2 -330.8,-12.3 -496.9,-12.3" /></g><g
         transform="scale(1.42617)"
         id="g202"><path
           id="path204"
           style="fill:#270a54;fill-opacity:1;fill-rule:nonzero;stroke:none"
           d="m 7033.25,7881.33 c -25.11,0 -46.15,19.63 -47.6,45.01 -152.81,2696.66 -152.81,5498.46 -0.04,8327.66 1.44,26.4 23.79,46 50.3,45.2 26.37,-1.5 46.56,-24 45.16,-50.3 -152.65,-2825.7 -152.65,-5623.9 -0.07,-8317.16 1.47,-26.29 -18.58,-48.87 -44.95,-50.34 -0.98,-0.07 -1.82,-0.07 -2.8,-0.07" /></g><g
         transform="scale(1.56847)"
         id="g206"><path
           id="path208"
           style="fill:#270a54;fill-opacity:1;fill-rule:nonzero;stroke:none"
           d="m 11020.3,15262.3 c -15.8,0 -31.2,8.7 -38.8,23.9 -219.1,435.3 -392.6,556.2 -1325.81,924.2 -22.31,8.8 -33.28,34.1 -24.48,56.4 8.8,22.3 33.92,33.2 56.36,24.5 949.73,-374.6 1141.93,-510 1371.53,-966.1 10.8,-21.4 2.2,-47.5 -19.3,-58.3 -6.2,-3.1 -12.9,-4.6 -19.5,-4.6" /></g></g></g></svg>