<?xml version="1.0" encoding="UTF-8" standalone="no"?>
<svg
   xmlns:dc="http://purl.org/dc/elements/1.1/"
   xmlns:cc="http://creativecommons.org/ns#"
   xmlns:rdf="http://www.w3.org/1999/02/22-rdf-syntax-ns#"
   xmlns:svg="http://www.w3.org/2000/svg"
   xmlns="http://www.w3.org/2000/svg"
   viewBox="0 0 2829.3333 2829.3333"
   height="2829.3333"
   width="2829.3333"
   xml:space="preserve"
   id="svg2"
   version="1.1"><metadata
     id="metadata8"><rdf:RDF><cc:Work
         rdf:about=""><dc:format>image/svg+xml</dc:format><dc:type
           rdf:resource="http://purl.org/dc/dcmitype/StillImage" /></cc:Work></rdf:RDF></metadata><defs
     id="defs6" /><g
     transform="matrix(1.3333333,0,0,-1.3333333,0,2829.3333)"
     id="g10"><g
       transform="scale(0.1)"
       id="g12"><path
         id="path14"
         style="fill:#f68168;fill-opacity:1;fill-rule:nonzero;stroke:none"
         d="m 12121.4,12359.7 c -11.3,-190 -18.6,-379.9 -19.5,-569.9 -1.3,-297.8 12.9,-595.4 30.8,-892.5 0.9,-15.3 2.1,-30.7 3.3,-46.1 44.1,-123.5 89.1,-246.7 133.9,-369.8 22.5,-62 44.7,-124.1 66.8,-186.2 26.4,42.8 69.8,76 119.4,76.7 93.8,1.2 173.5,-108.7 262.8,-79.9 72.1,23.2 131.6,136.7 218.1,96.1 1,-0.5 2.4,-1.3 3.5,-1.9 -0.4,22.3 -3.5,46.2 -8.4,72.4 -19.1,102.8 -35.6,206.3 -50.4,310 -30.4,212 -53.6,425.4 -76.6,638.7 -45.6,421.9 -90.5,845.2 -188.1,1256.3 -7.6,32.4 -9.8,55.9 -17.6,71.4 -5,-41.2 -11.5,-81.5 -21.5,-119.7 -55.8,-212.1 -255.5,-255.8 -456.5,-255.6" /><path
         id="path16"
         style="fill:#f68168;fill-opacity:1;fill-rule:nonzero;stroke:none"
         d="m 12718.9,10292 c -89.3,-28.8 -169,81.1 -262.8,79.9 -49.6,-0.7 -93,-33.9 -119.4,-76.7 -4.8,-7.8 -9.3,-15.9 -12.9,-24.2 -23.1,-53.9 -24.4,-114.4 -24.2,-173.1 1,-249.9 43.8,-492.3 222.1,-678.3 12.7,-13.3 26.5,-26.5 44,-32.1 38.4,-12.2 76.4,16.1 114.2,29.8 84.3,30.7 185.4,-10.1 264.3,32.4 47.5,25.6 78,77.5 128,97.7 57.7,23.3 132.5,0.7 179,42.1 30.3,27 36.2,71.8 36.6,112.4 0.9,74.6 -22.9,141.2 -29.8,213.5 -5.1,54.4 26.7,91 28.8,145.9 2.2,60 -44.8,109.8 -86.6,147.4 -55.6,50 -193.7,145.5 -259.7,177.5 -1.1,0.6 -2.5,1.4 -3.5,1.9 -86.5,40.6 -146,-72.9 -218.1,-96.1" /><path
         id="path18"
         style="fill:#f68168;fill-opacity:1;fill-rule:nonzero;stroke:none"
         d="m 12310.6,14457.4 c -2.1,0.1 -4.3,0.2 -6.4,0.3 -2.9,-44.5 -5.6,-89 -8.8,-133.5 -47.6,-653.8 -135.2,-1309 -174,-1964.5 201,-0.2 400.7,43.5 456.5,255.6 10,38.2 16.5,78.5 21.5,119.7 19.5,160.6 7.9,338.3 16.4,491.9 12.4,224.7 24.8,449.3 37.3,673.9 10.8,195.7 21.5,391.5 25.1,587.4 -109,-43.8 -290.3,-32.4 -367.6,-30.8" /><g
         transform="scale(1.03198)"
         id="g20"><path
           id="path22"
           style="fill:#b8e7e1;fill-opacity:1;fill-rule:nonzero;stroke:none"
           d="m 11198.1,16289.6 c 2.6,-6 4.4,-13.3 5.8,-21.1 70.5,-38.3 139.1,-77.2 204.6,-114.9 114.3,-65.4 289.8,-117.6 378.2,-218.2 90.4,-102.9 93.8,-335.5 110.8,-468.7 61.3,-484.5 56.4,-970.3 25.4,-1457 2.1,-0.1 4.2,-0.2 6.2,-0.3 74.9,-1.5 250.6,-12.6 356.2,29.8 50.4,20.2 85,52.5 84.7,104.1 -0.9,153.2 -1.8,306.3 -2.7,459.4 -2.3,406.3 15.2,1026.1 -362.3,1283.4 -202.7,138.3 -590.1,325.6 -819.6,413.8 -0.2,0 -0.2,0.1 -0.4,0.1 7.1,-4.3 12,-8 13.1,-10.4" /></g><path
         id="path24"
         style="fill:#e9e9e9;fill-opacity:1;fill-rule:nonzero;stroke:none"
         d="m 10651.6,2339.8 c -12.9,-53.4 -27.2,-106.4 -45.7,-158.2 -35.8,-100.7 -67.2,-208.6 -72.4,-316.3 -0.4,-6.9 -0.6,-13.9 -0.7,-20.8 -0.3,-16.7 0.8,-34 4.8,-50.2 122.1,-32.7 332.2,-109.2 332.2,-109.2 49.3,346.7 487.3,538.8 587.2,561.2 6.7,1.5 15.8,2.3 26.8,2.5 -0.1,0 -0.2,0.1 -0.2,0.2 -15.4,18.3 -30.6,37.6 -45.9,57.3 -242.3,-30.1 -539.7,-42 -786.1,33.5" /><path
         id="path26"
         style="fill:#71cfca;fill-opacity:1;fill-rule:nonzero;stroke:none"
         d="m 11457,2246.3 c -99.9,-22.4 -537.9,-214.5 -587.2,-561.2 0,0 -210.1,76.5 -332.2,109.2 -39.6,10.6 -70.1,16.7 -81,14 -44.6,-11 -45.2,-206.7 -45.2,-206.7 0,0 1226.5,-485.4 1854.5,-223.6 0,0 164.3,239.3 31.2,522.9 -104.2,221.7 -658.8,350 -813.3,347.9 -11,-0.2 -20.1,-1 -26.8,-2.5" /><path
         id="path28"
         style="fill:#88cdc8;fill-opacity:1;fill-rule:nonzero;stroke:none"
         d="m 11767.8,10535.7 c -70.3,-7.6 -140.7,-14.9 -211.2,-21.9 -21.5,-236.4 -43,-472.8 -64.6,-709.3 -5.8,-63.8 -2.4,-137.6 -23,-198.9 -20,-59.8 -85.5,-97.7 -131.6,-135.8 -115.8,-95.9 -231.6,-191.9 -347.5,-287.8 -1.6,-6.1 -3.4,-12.1 -5,-18.1 -0.3,-3.1 -0.5,-6.2 -0.7,-9.3 -0.6,-6.4 -3.1,-11.4 -6.2,-15.7 -81.3,-297.6 -168.8,-593 -272.2,-883.7 -97.8,-275.2 -187.8,-551.9 -267.7,-832.8 -3.7,-13 -13.1,-19.3 -23.4,-21 35.6,-164.1 74.2,-328.4 113.1,-482.1 -0.9,148.4 59.8,-13.6 233,-13.1 173.3,0.5 347.7,-11.9 520.9,-17.8 199.9,-6.8 476,588.9 640.2,470.3 107.8,-77.8 132.9,-317.1 127.9,-567.8 37.8,225.3 37,467.7 45.6,678.2 4.2,104 7.8,208.1 10.8,312.1 20.1,693.7 12.8,1388.2 -21.8,2081.4 -4.9,97.6 0.5,410.2 5.6,728.9 -2.6,-1 -4.5,-1.6 -7.4,-2.7 -94,-34.6 -215.4,-42.3 -314.8,-53.1" /><path
         id="path30"
         style="fill:#88cdc8;fill-opacity:1;fill-rule:nonzero;stroke:none"
         d="m 11016.1,9557 c -7.4,-97.6 -15,-195.2 -23.2,-292.7 94.1,77.9 188.2,155.9 282.3,233.8 58.4,48.4 133.8,89.8 142.7,170.5 7.7,69.9 12.7,140.1 19.1,210.1 19.1,209.8 38.2,419.5 57.3,629.3 -38.7,-3.7 -77.4,-7.4 -116.2,-10.8 -56.3,-348.5 -162.7,-717.8 -362,-940.2" /><path
         id="path32"
         style="fill:#88cdc8;fill-opacity:1;fill-rule:nonzero;stroke:none"
         d="m 10951,9515.3 c -5.1,-1 -10.2,-1.9 -15.2,-2.8 -28.6,-136.2 -52.6,-241.8 -62.2,-286.9 -66.9,-315.6 -141.6,-629.5 -223.1,-941.6 103.8,293.4 191.8,591.4 273.6,891.7 9.8,113.1 18.2,226.4 26.9,339.6" /><path
         id="path34"
         style="fill:#88cdc8;fill-opacity:1;fill-rule:nonzero;stroke:none"
         d="m 11921.9,7358.7 c -164.2,118.6 -440.3,-477.1 -640.2,-470.3 -173.2,5.9 -347.6,18.3 -520.9,17.8 -173.2,-0.5 -233.9,161.5 -233,13.1 0,-0.1 0,-0.1 0,-0.3 2.3,-357.4 -23.1,-990.5 -51.1,-1334.7 -55.9,-689.7 -73.3,-1381.8 -78.4,-2073.6 -1.5,-200.7 -1.9,-401.5 -2,-602.2 0,-134.1 -56.3,-410.2 64.9,-484.9 58,-35.7 122.4,-62.9 190.4,-83.8 246.4,-75.5 543.8,-63.6 786.1,-33.5 19.6,2.5 38.9,5 57.8,7.6 89.2,12.5 153,34.3 164.3,137.1 16.8,151.9 32,303.9 46,456.1 63.4,691.9 101.3,1385.8 150.8,2078.7 1.2,16.8 2.4,33.6 3.6,50.4 23.8,329.6 100.8,772.9 134.1,1101.7 11.7,114.9 50.2,390.2 55.5,653 5,250.7 -20.1,490 -127.9,567.8" /><path
         id="path36"
         style="fill:#e9e9e9;fill-opacity:1;fill-rule:nonzero;stroke:none"
         d="m 8835.24,2037.5 c -179.68,-11.5 -361.57,10.8 -532.43,67.6 -49.24,16.4 -98.6,36.5 -140.21,66.8 -12.23,-49.4 -25.7,-98.4 -42.76,-146.3 -35.86,-100.7 -67.21,-208.7 -72.45,-316.3 -0.34,-6.9 -0.56,-13.9 -0.68,-20.8 -0.28,-16.7 0.83,-34 4.83,-50.2 122.11,-32.7 332.12,-109.2 332.12,-109.2 36.42,255.7 283.93,427 451.58,508.4" /><path
         id="path38"
         style="fill:#71cfca;fill-opacity:1;fill-rule:nonzero;stroke:none"
         d="m 9779.83,1222 c 0,0 164.28,239.3 31.15,522.9 -86.59,184.4 -484.82,304.2 -705.35,338 -14.57,-5.2 -29.56,-9.5 -44.46,-13 -74.22,-17.2 -149.89,-27.5 -225.93,-32.4 -167.65,-81.4 -415.16,-252.7 -451.58,-508.4 0,0 -210.01,76.5 -332.12,109.2 -39.59,10.6 -70.07,16.7 -80.98,14 -44.58,-11 -45.21,-206.7 -45.21,-206.7 0,0 1226.49,-485.498 1854.48,-223.6" /><path
         id="path40"
         style="fill:#88cdc8;fill-opacity:1;fill-rule:nonzero;stroke:none"
         d="m 8968.14,10058.2 c 318.41,118.2 659.94,157.8 998.11,148.3 101.25,-2.8 240.25,104.3 387.15,232 -86.8,-1.8 -173.7,-3 -260.6,-2.8 -193.39,0.3 -389.42,6 -574.95,60.6 -80.02,23.6 -74.98,166.1 -90.4,235.3 -23.29,104.8 -48.75,209.1 -76.3,312.8 10.82,-40.7 -84.99,-202.5 -109.44,-242.5 -54.33,-88.8 -115.96,-169.5 -161.91,-264 -4.45,-9.1 -9.45,-19 -18.61,-23.3 -7.99,-3.8 -17.37,-2.6 -26.11,-1.3 -104.1,15.8 -208.18,31.6 -312.28,47.3 -0.52,-97.5 0.17,-196.5 2.24,-296.9 5.68,37.5 11.24,64.9 16.38,75.9 46.33,99.2 124.06,-319.5 226.72,-281.4" /><path
         id="path42"
         style="fill:#88cdc8;fill-opacity:1;fill-rule:nonzero;stroke:none"
         d="m 10960.3,9632.5 c -8.4,-42 -16.6,-82.2 -24.5,-120 5,0.9 10.1,1.8 15.2,2.8 3.1,39.1 6.4,78.1 9.3,117.2" /><path
         id="path44"
         style="fill:#88cdc8;fill-opacity:1;fill-rule:nonzero;stroke:none"
         d="m 11016.1,9557 c 199.3,222.4 305.7,591.7 362,940.2 -98.2,-8.8 -196.5,-16.7 -294.9,-23.9 -3.7,-73 -11.2,-152.6 -21.4,-235.5 -12.9,-227.1 -28.4,-454 -45.7,-680.8" /><path
         id="path46"
         style="fill:#88cdc8;fill-opacity:1;fill-rule:nonzero;stroke:none"
         d="m 8844.88,7308.4 c 181.31,153.5 452.02,166.9 674.19,83 172.47,-65.2 452.76,-228.1 524.43,-411.6 84.4,-215.8 161,1.6 143.5,-223.8 29.8,83.8 58.6,167.9 86.5,252.1 43.3,131 84.9,262.5 125.6,394.3 -14.4,4.4 -25.9,17.7 -20.5,36.4 79.8,281 169.8,557.7 267.7,832.8 1.4,4.1 2.7,8.2 4.2,12.4 81.5,312.1 156.2,626 223.1,941.6 9.6,45.1 33.6,150.7 62.2,286.9 7.9,37.8 16.1,78 24.5,120 17.3,233.1 33,466.3 45.6,699.7 2.1,39.6 63.9,39.7 61.8,0 -1.7,-31.5 -4.1,-62.9 -5.9,-94.4 10.2,82.9 17.7,162.5 21.4,235.5 -243,-17.6 -486.3,-29.8 -729.8,-34.8 -146.9,-127.7 -285.9,-234.8 -387.15,-232 -338.17,9.5 -679.7,-30.1 -998.11,-148.3 -102.66,-38.1 -180.39,380.6 -226.72,281.4 -5.14,-11 -10.7,-38.4 -16.38,-75.9 -25.07,-165.7 -52.55,-531.7 -56.48,-585 -56.88,-770.8 -113.67,-1545.1 -113.04,-2317.3 51.02,42.6 183.41,-142.6 289.36,-53" /><path
         id="path48"
         style="fill:#5ea1a2;fill-opacity:1;fill-rule:nonzero;stroke:none"
         d="m 11417.9,9668.6 c -8.9,-80.7 -84.3,-122.1 -142.7,-170.5 -94.1,-77.9 -188.2,-155.9 -282.3,-233.8 -1.4,-16.3 -2.5,-32.7 -3.9,-49 4.3,-6.3 6.1,-14.6 3.5,-24.2 -0.9,-3 -1.8,-6.1 -2.6,-9.1 115.9,95.9 231.7,191.9 347.5,287.8 46.1,38.1 111.6,76 131.6,135.8 20.6,61.3 17.2,135.1 23,198.9 21.6,236.5 43.1,472.9 64.6,709.3 -20.7,-2 -41.5,-3.8 -62.3,-5.8 -19.1,-209.8 -38.2,-419.5 -57.3,-629.3 -6.4,-70 -11.4,-140.2 -19.1,-210.1" /><path
         id="path50"
         style="fill:#5ea1a2;fill-opacity:1;fill-rule:nonzero;stroke:none"
         d="m 10984.2,9154.6 c 0.2,3.1 0.4,6.2 0.7,9.3 -2.3,-8.4 -4.6,-16.7 -6.9,-25 3.1,4.3 5.6,9.3 6.2,15.7" /><path
         id="path52"
         style="fill:#5ea1a2;fill-opacity:1;fill-rule:nonzero;stroke:none"
         d="m 10924.1,9175.7 c 2.9,10.6 5.9,21.2 8.8,31.9 7.8,28.7 43.2,26.7 56.1,7.7 1.4,16.3 2.5,32.7 3.9,49 8.2,97.5 15.8,195.1 23.2,292.7 17.3,226.8 32.8,453.7 45.7,680.8 1.8,31.5 4.2,62.9 5.9,94.4 2.1,39.7 -59.7,39.6 -61.8,0 -12.6,-233.4 -28.3,-466.6 -45.6,-699.7 -2.9,-39.1 -6.2,-78.1 -9.3,-117.2 -8.7,-113.2 -17.1,-226.5 -26.9,-339.6" /><path
         id="path54"
         style="fill:#88cdc8;fill-opacity:1;fill-rule:nonzero;stroke:none"
         d="m 8835.24,2037.5 c 76.04,4.9 151.71,15.2 225.93,32.4 14.9,3.5 29.89,7.8 44.46,13 24.37,8.6 47.22,20.4 63.95,39.7 21.43,24.9 29.91,58.1 37.75,90 151.4,617.1 302.82,1234.1 454.25,1851.1 95.27,388.3 190.66,777.3 250.15,1172.6 46.49,309 250.87,1207.5 275.27,1519 0,0.3 0,0.5 0,0.7 17.5,225.4 -59.1,8 -143.5,223.8 -71.67,183.5 -351.96,346.4 -524.43,411.6 -222.17,83.9 -492.88,70.5 -674.19,-83 -105.95,-89.6 -238.34,95.6 -289.36,53 -8.88,-7.4 -15.59,-20.9 -18.95,-44.8 -145.33,-1034.7 -366.11,-2396.3 -431.18,-3406.2 -16,-248.4 -32.01,-496.7 -47.99,-745.1 -13.59,-210.7 -27.16,-421.7 -24.53,-632.8 1.46,-116.9 12.4,-244.8 93.25,-329.2 11.19,-11.7 23.52,-21.9 36.48,-31.4 41.61,-30.3 90.97,-50.4 140.21,-66.8 170.86,-56.8 352.75,-79.1 532.43,-67.6" /><path
         id="path56"
         style="fill:#5ea1a2;fill-opacity:1;fill-rule:nonzero;stroke:none"
         d="m 10438.1,7422.4 c 79.9,280.9 169.9,557.6 267.7,832.8 103.4,290.7 190.9,586.1 272.2,883.7 2.3,8.3 4.6,16.6 6.9,25 1.6,6 3.4,12 5,18.1 0.8,3 1.7,6.1 2.6,9.1 2.6,9.6 0.8,17.9 -3.5,24.2 -12.9,19 -48.3,21 -56.1,-7.7 -2.9,-10.7 -5.9,-21.3 -8.8,-31.9 -81.8,-300.3 -169.8,-598.3 -273.6,-891.7 -1.5,-4.2 -2.8,-8.3 -4.2,-12.4 -97.9,-275.1 -187.9,-551.8 -267.7,-832.8 -5.4,-18.7 6.1,-32 20.5,-36.4 5.1,-1.6 10.4,-1.8 15.6,-1 10.3,1.7 19.7,8 23.4,21" /><path
         id="path58"
         style="fill:#b8e7e1;fill-opacity:1;fill-rule:nonzero;stroke:none"
         d="m 10785.4,13784.1 -18.2,-95.4 285.3,-47.1 19.5,105.2 -286.6,37.3" /><g
         transform="scale(1.03552)"
         id="g60"><path
           id="path62"
           style="fill:#b8e7e1;fill-opacity:1;fill-rule:nonzero;stroke:none"
           d="m 10997.1,16299.6 c -0.1,0 -0.3,0.1 -0.4,0.2 -0.1,0.1 -0.3,0.1 -0.5,0.2 v -0.7 c 0.2,0.1 0.7,0.2 0.9,0.3" /></g><g
         transform="scale(1.03578)"
         id="g64"><path
           id="path66"
           style="fill:#b8e7e1;fill-opacity:1;fill-rule:nonzero;stroke:none"
           d="m 8748.19,10151.4 c 8.84,4.1 13.67,13.7 17.97,22.5 44.36,91.2 103.86,169.1 156.31,254.9 23.61,38.6 116.11,194.8 105.66,234.1 26.6,-100.1 51.18,-200.8 73.67,-302 14.88,-66.8 10.02,-204.4 87.27,-227.2 179.12,-52.7 368.38,-58.2 555.09,-58.5 83.9,-0.2 167.8,1 251.6,2.7 235.04,4.8 469.94,16.6 704.64,33.6 95,7 189.9,14.6 284.7,23.1 37.4,3.3 74.8,6.8 112.2,10.4 20,2 40.1,3.7 60.1,5.6 68.1,6.8 136,13.8 203.9,21.2 96,10.4 213.2,17.8 303.9,51.2 2.8,1.1 4.7,1.7 7.2,2.6 62.4,22.5 53.8,15.3 53.7,95 0,51.7 -5.2,103.9 -9.3,155.8 -1.2,14.8 -2.3,29.7 -3.2,44.5 -17.3,286.8 -31,574.1 -29.7,861.6 0.8,183.4 7.9,366.8 18.8,550.2 37.4,632.9 122,1265.5 168,1896.7 3.1,43 5.7,85.9 8.5,128.8 30.9,485 35.7,969.1 -25.4,1451.7 -16.9,132.8 -20.3,364.5 -110.4,467 -88,100.2 -262.9,152.3 -376.8,217.4 -65.3,37.6 -133.6,76.3 -203.8,114.5 16.3,-93 -55.6,-299.1 -67.3,-377.9 -48,-264.2 -109.8,-525.3 -155.7,-789.8 -150.9,111.8 -308.1,215.6 -453.6,334.9 -132.4,108.6 -263.9,218.1 -394.3,329 -142.38,121.2 -283.92,243.3 -423.91,366.9 -18.63,16.5 -144.36,134.6 -245.27,228.1 25.41,-300.3 -44.22,-715.5 -86.41,-1013.9 -58.36,-412.6 -130.75,-823.2 -217.09,-1230.8 -37.02,-2.8 -73.93,-4.1 -110.85,-5.6 22.48,-169.1 -3.2,-368.4 -7.97,-532.4 -8.89,-307 -33.7,-613.4 -73.43,-917.9 192.27,-71.8 384.53,-142.9 577.43,-211.4 l 157.6,836.5 378.8,-69.3 18.8,116 288.5,-47.6 25.5,129.8 369.1,-42.5 -29.6,-147.5 298.7,-49.3 -25.9,-131.8 356.4,-65.2 -158.4,-813.6 c 3.4,-1.7 6.7,-3.5 10.5,-5 65.2,-25.3 133.1,-33.6 197.1,-66.6 34.9,-17.9 71,-42.4 81.2,-80.2 15.7,-58.1 -36.2,-112.8 -41,-172.7 -4.3,-51.9 27.4,-100.7 28.9,-152.7 2.6,-86.5 -76.3,-156.2 -86.4,-242.2 -4.4,-38.6 3.5,-83.6 -23.6,-111.5 -12.4,-12.6 -29.8,-18.8 -46.7,-24.1 -94.7,-29.2 -194.3,-40.2 -293.2,-34.8 l -125,-642.5 -1668.21,294.4 113.98,604.8 c -318.23,57.9 -634.33,128.8 -947.7,212.2 -2.04,-73.2 -3.73,-146.5 -5.81,-219.7 -11.62,-407.1 -58.52,-826.6 -27.66,-1232.5 0.54,-7.1 1.35,-14.7 6.11,-19.9 4.92,-5.3 12.66,-6.8 19.81,-7.8 15.09,-2.4 30.18,-4.6 45.27,-6.9 100.5,-15.2 200.99,-30.4 301.49,-45.7 8.44,-1.2 17.49,-2.4 25.21,1.3" /></g><path
         id="path68"
         style="fill:#260d21;fill-opacity:1;fill-rule:nonzero;stroke:none"
         d="m 11194.2,11056.1 -1520.15,274.1 98.03,532.2 c -35.59,6.2 -71.21,12 -106.74,18.4 l -118.06,-626.4 1727.92,-305 129.5,665.5 c -34.2,1.8 -68.4,5.5 -102.2,11.2 l -108.3,-570" /><path
         id="path70"
         style="fill:#260d21;fill-opacity:1;fill-rule:nonzero;stroke:none"
         d="m 11621.4,13304.3 -131.1,-690.1 c 35.6,-24.5 55.5,-58.3 93.8,-77.6 l 164,842.7 -369.1,67.5 -18.4,-93.7 260.8,-48.8" /><path
         id="path72"
         style="fill:#260d21;fill-opacity:1;fill-rule:nonzero;stroke:none"
         d="m 10090.4,13590.8 295.1,-55.2 14.6,90.3 -392.4,71.7 -163.24,-866.3 c 33.18,-11.9 66.37,-23.6 99.6,-35.2 l 146.34,794.7" /><path
         id="path74"
         style="fill:#ffffff;fill-opacity:1;fill-rule:nonzero;stroke:none"
         d="m 11477.3,12622.5 c 4.7,-2.6 8.8,-5.4 13,-8.3 l 131.1,690.1 -260.8,48.8 -9.5,-48.1 -976.6,162.6 11,68 -295.1,55.2 -146.34,-794.7 c 359.54,-125.9 721.84,-241.4 1091.14,-335.1 60.2,45.1 203.2,123.3 271.6,150.1 52.3,20.6 117.9,40.3 170.5,11.4" /><path
         id="path76"
         style="fill:#ffffff;fill-opacity:1;fill-rule:nonzero;stroke:none"
         d="m 11194.2,11056.1 108.3,570 c -52.4,8.9 -104.1,21.8 -154,39.8 -53.3,19.1 -161.4,53.5 -208.6,97.6 -269.4,-25.7 -540.9,3.4 -807.7,41.5 -120.3,17.2 -240.3,36.7 -360.12,57.4 l -98.03,-532.2 1520.15,-274.1" /><path
         id="path78"
         style="fill:#7b7979;fill-opacity:1;fill-rule:nonzero;stroke:none"
         d="m 10374.5,13467.6 976.6,-162.6 9.5,48.1 18.4,93.7 26.8,136.6 -309.4,51 -19,-94.5 -43.6,0.7 18.7,101 -285.3,47.1 -19.9,-104.2 -49.7,7.3 20.7,105 -298.8,49.3 -19.4,-120.2 -14.6,-90.3 -11,-68" /><path
         id="path80"
         style="fill:#7b7979;fill-opacity:1;fill-rule:nonzero;stroke:none"
         d="m 10747.3,13584.5 19.9,104.2 18.2,95.4 286.6,-37.3 -19.5,-105.2 -18.7,-101 43.6,-0.7 19,94.5 30.7,152.8 -382.3,43.9 -26.5,-134.3 -20.7,-105 49.7,-7.3" /><g
         transform="scale(1.03792)"
         id="g82"><path
           id="path84"
           style="fill:#ffffff;fill-opacity:1;fill-rule:nonzero;stroke:none"
           d="m 10071.1,15672.6 c 130.1,-110.7 261.4,-219.9 393.5,-328.2 145.2,-119.1 302.1,-222.8 452.6,-334.3 45.9,263.9 107.6,524.5 155.4,788.2 11.7,78.6 83.5,284.3 67.2,377.1 -1.4,7.7 -3.2,15 -5.8,21 -1.1,2.4 -6,6 -13,10.3 -36.2,22.1 -136.9,62.7 -149.3,55.2 -0.2,-0.1 -0.7,-0.1 -0.9,-0.3 7.4,-58.7 -12.1,-121.4 -21.2,-183.5 -42.1,-285.2 -84.3,-570.7 -126.6,-855.9 -171,142.8 -342.1,285.7 -513.1,429 -258.8,216.2 -517.6,432.4 -776.13,648.8 -27.39,-6 -54.75,-12.4 -82.14,-18.6 -6.44,-1.4 -12.87,-3.1 -19.3,-4.5 -10,-2.2 -19.53,-5.7 -29.03,-10.5 100.71,-93.3 226.18,-211.2 244.77,-227.6 139.7,-123.3 280.94,-245.2 423.03,-366.2" /></g><g
         transform="scale(1.04305)"
         id="g86"><path
           id="path88"
           style="fill:#f68168;fill-opacity:1;fill-rule:nonzero;stroke:none"
           d="m 10769.8,15147.3 c 42.1,283.8 84.1,567.9 126,851.7 9,61.9 28.4,124.2 21.1,182.7 v 0.7 0 c -77.2,37.2 -156.4,71.1 -236.7,99.4 10.3,-49.2 18.3,-99.5 -3.5,-143.3 -81.8,-163.7 -360.6,-186.1 -515.3,-190.2 -128.4,-3.5 -260.7,19.7 -369.61,87.8 -118.6,74.2 -193.38,78.4 -159.63,216.2 3.64,15 7,31.1 10.35,47.7 -58.75,-30.8 -143.1,-77.1 -155.63,-80.2 257.26,-215.3 514.82,-430.4 772.32,-645.6 170.1,-142.6 340.4,-284.7 510.6,-426.9" /></g><g
         transform="scale(1.08054)"
         id="g90"><path
           id="path92"
           style="fill:#f68168;fill-opacity:1;fill-rule:nonzero;stroke:none"
           d="m 9452.04,15479.7 c 105.13,-65.7 232.85,-88.1 356.77,-84.8 149.37,4 418.49,25.6 497.39,183.7 21.1,42.2 13.4,90.8 3.5,138.3 -5.7,27.1 -12.1,53.8 -14.2,78.8 -6.2,73.4 -9.2,147 -11.5,220.6 -46.2,-32.1 -97.7,-56.7 -154.9,-72 7,-14.4 3.6,-32.6 -16.2,-35.3 -169.72,-23.4 -326.86,55.9 -458.28,156.8 -1.66,1.2 -3.24,2.6 -4.81,3.9 -104.58,74.6 -193.97,163.9 -253.85,230.3 -36.19,-155 -54.7,-399.5 -88.01,-565.6 -3.24,-16 -6.48,-31.6 -10,-46 -32.57,-133 39.61,-137.1 154.09,-208.7" /></g><g
         transform="scale(1.17929)"
         id="g94"><path
           id="path96"
           style="fill:#f68168;fill-opacity:1;fill-rule:nonzero;stroke:none"
           d="m 9646.61,16257.6 c -46.04,17.8 -93.61,31.2 -141.61,42.4 -14.32,-25.3 -32.81,-48.3 -55.79,-66.6 -58.17,-46.5 -134.23,-63.5 -208.17,-72.5 -153.49,-18.9 -310.28,-8.6 -460.37,28.6 -16.02,-10.4 -31.79,-21.2 -46.97,-32.6 -74.12,-55.2 -138.73,-122.8 -192.83,-197.7 -3.99,-5.5 -7.38,-11.4 -11.28,-17.1 0.09,-40.3 2.46,-80.9 -7.71,-120.4 -0.68,-2.7 -1.96,-5 -2.72,-7.6 46.47,8.3 93.11,15.8 139.75,23.1 -0.51,28.8 1.01,59.3 20.09,82.1 18.91,22.5 49.02,32.1 75.9,41 58.59,19.3 120.91,23.6 182.73,23.8 23.07,4.2 46.22,7.8 69.71,9.4 18.56,1.4 77.42,10.3 90.3,-3.6 2.29,-2.5 3.99,-6.5 5.52,-10.9 27.39,-3.1 54.18,-8.6 78.35,-19.3 52.4,-23.4 59.86,-73.8 57.49,-126.1 -1.44,-31.8 -2.38,-64.4 -4.16,-96.9 26.97,10.3 53.93,17.9 83.36,14.7 21.79,-2.4 42.23,-7.2 60.8,-17.2 -1.36,32.1 -1.87,64.2 -2.63,96.2 -0.85,32.8 -2.54,70.3 19.93,97.1 5,6 10.94,11 17.3,15.4 1.44,9.6 3.56,18.6 7.54,23.9 8.74,11.2 26.8,9.2 40.96,9.7 11.95,0.4 23.83,-0.8 35.7,-1.7 69.02,17.7 142.03,18.4 212.84,16.9 24.25,-0.6 50.19,-0.5 76.14,-1.8 -7.12,53 -18.57,107 -34.76,160.6 -25.78,52.9 -47.74,84.8 -105.41,107.1" /></g><g
         transform="scale(1.15358)"
         id="g98"><path
           id="path100"
           style="fill:#f68168;fill-opacity:1;fill-rule:nonzero;stroke:none"
           d="m 8930.55,16280.8 c -23.23,-9.5 -37.45,-22.7 -45.17,-41.8 28.53,23.4 85.56,50.1 110.96,61 -22.27,-4.7 -44.3,-10.5 -65.79,-19.2" /></g><g
         transform="scale(1.11834)"
         id="g102"><path
           id="path104"
           style="fill:#f68168;fill-opacity:1;fill-rule:nonzero;stroke:none"
           d="m 10295.2,16270.3 c 1.8,9.8 3.6,19.7 5.2,29.7 -12.4,-2.7 -24.9,-4.7 -37.5,-6 14.4,-10.3 25.3,-18.4 32.3,-23.7" /></g><g
         transform="scale(1.13792)"
         id="g106"><path
           id="path108"
           style="fill:#f68168;fill-opacity:1;fill-rule:nonzero;stroke:none"
           d="m 9651.28,16297.5 c -29.18,2.5 -56.07,-7.6 -82.7,-18.2 -1.49,-20.4 -3.78,-40.6 -6.68,-60.6 19.42,1.1 37.88,1.5 54.84,0.7 37.35,-1.7 76.28,-9.8 115.3,-21.3 -4.75,25 -8.18,50 -10.02,75.3 -0.44,0.3 -0.88,0.2 -1.32,0.5 -19.42,16 -44.82,21.5 -69.42,23.6" /></g><g
         transform="scale(1.15404)"
         id="g110"><path
           id="path112"
           style="fill:#f68168;fill-opacity:1;fill-rule:nonzero;stroke:none"
           d="m 9265.26,16032.5 c -21.14,-4.7 -40.81,-12.2 -53.21,-29.7 -14.55,-20.6 -21.57,-29 -48.69,-31.8 -8.15,-0.9 -16.55,-1.7 -24.35,0.5 -7.2,2 -13.35,6.5 -19.24,11 -7.97,6.2 -16.03,13.1 -21.84,21.5 -9.27,13.2 -7.1,16.3 -24.52,18.3 -28.59,3.2 -57.28,4.1 -85.7,8.6 5.72,-0.9 29.72,13.9 36.66,16.4 12.73,4.6 25.3,9.2 38.56,12.5 30.58,7.8 62.04,13.7 93.75,14.3 11.7,0.3 23.57,-0.3 35.36,-1.8 27.2,-3.5 53.72,-11.9 76.51,-27 l 4.94,-7 z m 139.16,-14.4 c 5.46,60.5 11.18,123 10.49,183.7 -0.26,29.9 -4.77,60.7 -32.67,77.3 -22.36,13.2 -49.83,18 -75.3,20.9 1.21,-21.1 -0.09,-44.3 -0.17,-55.6 0.08,6.6 -215.25,-0.5 -234.22,-2.4 -36.31,-3.8 -71.75,-12.7 -107.19,-21.1 -10.66,-2.5 -68.37,-20.5 -90.3,-19.5 -1.47,-25.2 0.61,-51 1.04,-76.2 0.96,-61.5 3.12,-123.4 18.38,-183.3 7.88,-27.7 20.62,-49.3 37.43,-66.6 135.52,45 325.9,100.9 469.39,114.7 1.21,9.5 2.34,18.9 3.12,28.1" /></g><g
         transform="scale(1.14391)"
         id="g114"><path
           id="path116"
           style="fill:#f68168;fill-opacity:1;fill-rule:nonzero;stroke:none"
           d="m 8927.17,16300 c -51.84,-8.2 -103.77,-16.5 -155.43,-26.1 -26.49,-56.4 -75.9,-100.5 -129.37,-138 -4.04,-11.5 -7.86,-22.9 -10.81,-33.7 3.12,-4.2 6.19,-8.4 9.17,-12.7 74.62,-40.4 148.57,-82.1 221.22,-126 24.04,9 66.7,24.5 120.29,42.7 -15.91,19.7 -27.45,43.1 -35.05,69.7 -18.71,73.4 -18.45,148.9 -20.02,224.1" /></g><g
         transform="scale(1.12301)"
         id="g118"><path
           id="path120"
           style="fill:#f68168;fill-opacity:1;fill-rule:nonzero;stroke:none"
           d="m 8922.32,16131.7 c 11.76,-41.8 27.16,-91.4 25.65,-135.1 -0.8,-22.3 0.36,-96.1 -13.98,-108.4 -1.69,-1.4 -3.74,-2.1 -5.79,-2.8 1.6,-2.6 3.03,-5.2 4.72,-7.8 11.22,5.6 26.45,5.1 35.97,-7.6 0.89,-1.1 1.78,-2.1 2.59,-3.2 l 30.1,347.7 c -48.45,29.2 -97.34,57.7 -146.66,85.5 28.1,-53.7 51.11,-110 67.4,-168.3" /></g><g
         transform="scale(1.15516)"
         id="g122"><path
           id="path124"
           style="fill:#f68168;fill-opacity:1;fill-rule:nonzero;stroke:none"
           d="m 9814.82,16011.6 c -6.14,-2 -9.26,-8.6 -12.38,-14.2 -10.04,-18.1 -29,-32.3 -49.69,-31.6 -18.78,0.7 -35.14,13.1 -47.78,27 l -8.49,7.8 -9.61,3.1 c -9.69,2.1 -48.56,3 -49.69,17.3 -0.95,11.1 21.82,18.1 29.7,20.2 l 7.01,1.7 c 23.63,5.6 48.13,7.6 72.46,5.9 20.08,-1.4 42.24,-5.6 61.63,-11.2 11.43,-3.2 22.68,-6.9 33.59,-11.6 10.04,-4.3 18.09,-12.5 28.31,-16.2 -6.58,2.4 -48.74,3.9 -55.06,1.8 z m -43.02,283 c 69.34,-21.4 124.83,-62.5 172.61,-116.3 -53.76,6.1 -103.53,32.6 -156.77,42.4 -13.16,2.4 -150.63,17.8 -175.99,16.7 -7.54,-11.1 -11.95,-24.7 -12.99,-42.2 -1.47,-25.5 0.69,-51.7 1.04,-77.3 0.95,-57.2 3.29,-114.7 15.84,-170.6 109.85,-37.7 216.85,-102.3 285.41,-148.6 2.34,0.1 4.68,-0.1 6.93,0 22.51,0.9 45.8,4.5 68.56,10 15.93,111.2 21.04,230.5 23.76,372.2 0.2,11.1 -0.21,22.5 -0.47,33.7 -2.08,2.5 -3.55,5.7 -3.55,8.8 0,3.2 1.56,5.7 3.38,7.8 -0.78,21 -2.17,42.3 -4.42,63.8 -48.65,3.8 -97.82,5 -146.39,4.1 -25.79,-0.4 -51.5,-2 -76.95,-4.5" /></g><g
         transform="scale(1.14208)"
         id="g126"><path
           id="path128"
           style="fill:#202148;fill-opacity:1;fill-rule:nonzero;stroke:none"
           d="m 8659.06,16170.5 c -1.13,-3.1 -1.79,-5.8 -2.84,-8.8 53.55,37.7 103.03,81.8 129.57,138.3 -26.36,-4.9 -52.66,-10.2 -78.88,-15.8 -17.35,-37.3 -33.65,-75.1 -47.85,-113.7" /></g><g
         transform="scale(1.1534)"
         id="g130"><path
           id="path132"
           style="fill:#202148;fill-opacity:1;fill-rule:nonzero;stroke:none"
           d="m 8713.17,16176.8 c 10.41,40.4 7.98,81.9 7.89,123.2 -31.9,-46.3 -60.25,-94.8 -85.22,-145.2 24.78,5.1 49.67,9.8 74.56,14.3 0.78,2.6 2.08,5 2.77,7.7" /></g><g
         transform="scale(1.18174)"
         id="g134"><path
           id="path136"
           style="fill:#202148;fill-opacity:1;fill-rule:nonzero;stroke:none"
           d="m 9221.89,16127.4 c 73.79,9 149.7,26 207.74,72.4 22.94,18.3 41.39,41.2 55.69,66.4 -16.84,4 -33.51,8.6 -50.52,11.8 -34.44,6.2 -69.05,10.9 -104,13.7 -97.57,8.3 -196.32,3.4 -292.62,-15.6 -26.49,-5 -52.72,-11.1 -77.85,-20.2 -43.49,-15.4 -83.69,-40.2 -125.24,-59.2 -25.05,-11.6 -49.25,-25.6 -72.61,-40.7 149.78,-37.2 306.25,-47.4 459.41,-28.6" /></g><g
         transform="scale(1.06527)"
         id="g138"><path
           id="path140"
           style="fill:#d25262;fill-opacity:1;fill-rule:nonzero;stroke:none"
           d="m 9788.1,16300 c 1.59,-1.3 3.19,-2.7 4.88,-4 133.3,-102.3 292.72,-182.8 464.82,-159.1 20.1,2.8 23.5,21.3 16.5,35.8 -17.6,-4.7 -35.2,-9.4 -53.9,-12.3 -150,-23 -302.67,47.1 -432.3,139.6" /></g><g
         transform="scale(1.0943)"
         id="g142"><path
           id="path144"
           style="fill:#d25262;fill-opacity:1;fill-rule:nonzero;stroke:none"
           d="m 9167.33,16294.2 c -2.2,-1 -4.12,-2.4 -5.94,-3.9 7.58,-8.8 15.17,-17.6 22.66,-26.4 6.4,-7.5 12.88,-14.9 19.28,-22.4 l 3.57,41.6 c -0.83,1.2 -1.74,2.3 -2.66,3.4 -9.77,13 -25.4,13.5 -36.91,7.7" /></g><g
         transform="scale(1.15478)"
         id="g146"><path
           id="path148"
           style="fill:#202148;fill-opacity:1;fill-rule:nonzero;stroke:none"
           d="m 9790.89,16226.1 c 53.26,-9.8 103.05,-36.3 156.83,-42.5 -47.8,53.9 -103.31,95 -172.68,116.4 -41.3,-4.1 -82,-11.8 -121.32,-27.8 -17.84,-7.3 -30.39,-16.8 -38.88,-29.4 25.37,1.1 162.89,-14.3 176.05,-16.7" /></g><g
         transform="scale(1.156)"
         id="g150"><path
           id="path152"
           style="fill:#202148;fill-opacity:1;fill-rule:nonzero;stroke:none"
           d="m 9689.23,16296.8 c -12.11,0.9 -24.23,2.1 -36.42,1.7 -14.45,-0.5 -32.87,1.5 -41.78,-9.9 -4.07,-5.4 -6.23,-14.6 -7.7,-24.4 17.82,12.3 39.62,19.5 59.77,26.1 8.57,2.8 17.39,4.3 26.13,6.5" /></g><g
         transform="scale(1.15458)"
         id="g154"><path
           id="path156"
           style="fill:#202148;fill-opacity:1;fill-rule:nonzero;stroke:none"
           d="m 9068.29,16234.3 c 18.96,2 234.19,9.1 234.11,2.4 0.08,11.4 1.38,34.5 0.17,55.7 -0.6,0 -1.13,0.1 -1.65,0.2 -59.41,6.5 -120.21,7.4 -179.89,6.3 -44.77,-0.8 -89.21,-4 -132.51,-13.1 -25.38,-10.9 -82.37,-37.6 -110.86,-60.9 -3.56,-8.7 -6.07,-18.3 -6.76,-29.9 -0.09,-0.4 0,-0.8 0,-1.2 21.91,-1 79.6,17 90.25,19.5 35.42,8.4 70.85,17.3 107.14,21" /></g><g
         transform="scale(1.15787)"
         id="g158"><path
           id="path160"
           style="fill:#202148;fill-opacity:1;fill-rule:nonzero;stroke:none"
           d="m 9271.61,16274.7 c -1.55,4.5 -3.28,8.5 -5.61,11.1 -13.13,14.2 -73.07,5.1 -91.98,3.7 -23.92,-1.7 -47.5,-5.3 -70.99,-9.6 19,0 38,-0.2 56.82,-0.6 35.41,-0.8 74.19,-0.4 111.76,-4.6" /></g><g
         transform="scale(1.13748)"
         id="g162"><path
           id="path164"
           style="fill:#202148;fill-opacity:1;fill-rule:nonzero;stroke:none"
           d="m 9960.46,16287 c -19.69,5.7 -42.2,9.9 -62.6,11.3 -24.7,1.7 -49.58,-0.3 -73.58,-5.9 l -7.12,-1.8 c -8,-2.1 -31.12,-9.2 -30.16,-20.5 1.15,-14.6 40.62,-15.5 50.47,-17.6 l 9.75,-3.2 8.62,-7.9 c 12.84,-14.1 29.45,-26.7 48.53,-27.4 21.01,-0.7 40.26,13.7 50.46,32.1 3.16,5.7 6.33,12.4 12.57,14.5 6.42,2 49.2,0.5 55.9,-2 -10.4,3.9 -18.5,12.2 -28.73,16.6 -11.08,4.7 -22.51,8.4 -34.11,11.8" /></g><g
         transform="scale(1.13807)"
         id="g166"><path
           id="path168"
           style="fill:#202148;fill-opacity:1;fill-rule:nonzero;stroke:none"
           d="m 9321.06,16297.9 c -11.95,1.5 -23.99,2.1 -35.85,1.9 -32.16,-0.7 -64.06,-6.7 -95.08,-14.5 -13.44,-3.4 -26.18,-8.1 -39.1,-12.8 -7.03,-2.5 -31.36,-17.5 -37.17,-16.6 28.83,-4.6 57.91,-5.5 86.91,-8.7 17.66,-2 15.46,-5.2 24.86,-18.6 5.89,-8.5 14.06,-15.4 22.15,-21.8 5.97,-4.6 12.21,-9 19.5,-11.1 7.91,-2.3 16.43,-1.4 24.7,-0.6 27.5,2.9 34.61,11.5 49.38,32.3 12.56,17.8 32.51,25.4 53.95,30.2 l 8.34,5.8 -5,7.1 c -23.11,15.3 -50,23.9 -77.59,27.4" /></g><g
         transform="scale(1.12577)"
         id="g170"><path
           id="path172"
           style="fill:#d6ece5;fill-opacity:1;fill-rule:nonzero;stroke:none"
           d="m 9198.63,16046 c 150.21,34.9 297.57,92.4 453.11,99.5 157.14,7.2 298.02,-55.5 436.46,-122.3 30.3,-14.7 3.8,-59.9 -26.5,-45.3 -135.83,65.6 -271.3,124.7 -425.5,114.3 -144.97,-9.8 -283.19,-64.1 -423.71,-96.7 -32.87,-7.7 -46.73,42.9 -13.86,50.5 z m 216.65,-512.8 c -30.38,14.7 -3.82,59.9 26.47,45.3 115.12,-55.7 244.02,-76 370.86,-61.1 14.04,1.7 26.38,-13.3 26.2,-26.2 -0.17,-15.3 -12.07,-24.5 -26.2,-26.2 -136.18,-16 -274.12,8.6 -397.33,68.2 z m 567.26,194.6 c -232.82,-10.9 -465.91,8.6 -693.84,57.4 -33.04,7.1 -19.01,57.6 13.95,50.5 223.49,-47.8 451.69,-66.2 679.89,-55.5 33.76,1.6 33.56,-50.9 0,-52.4 z m -720.4,-303.7 c 122.67,-87.5 267.11,-153.8 409.06,-132 17.67,2.7 34.37,7.2 50.99,11.6 54.89,14.7 104.28,38.4 148.69,69.2 228.62,158.5 324.82,497.7 355.12,688.8 -33.9,30.4 -101.6,84.7 -192.2,133.9 -33.4,6.9 -66.18,16.7 -96.39,30.9 -17.49,8.3 -31.71,19.4 -44.5,31.6 -56.32,19.6 -117.34,34.2 -181.65,39.9 -22.03,2 -46.19,1.8 -71.15,0.7 -17.06,-36.5 -43.09,-66.8 -81.46,-87.5 -58.01,-31.5 -126.67,-39.5 -191.78,-35.4 -51.61,3.2 -105.26,13 -154.3,31.7 -90.69,-29 -154.11,-53.7 -154.11,-53.7 l -64.14,-481.3 c 7.38,-8.5 15.46,-17.7 24.16,-27.3 57.48,-63.7 143.28,-149.5 243.66,-221.1" /></g><g
         transform="scale(1.12556)"
         id="g174"><path
           id="path176"
           style="fill:#d6ece5;fill-opacity:1;fill-rule:nonzero;stroke:none"
           d="m 9417.04,16205.7 c 57.39,2.4 120.74,16.7 164.72,56.2 12.26,11 21.85,24 29.59,38.1 -112.84,-9.5 -244.42,-42.9 -350.94,-75.1 50.91,-14 103.95,-21.4 156.63,-19.2" /></g><g
         transform="scale(1.13235)"
         id="g178"><path
           id="path180"
           style="fill:#ffffff;fill-opacity:1;fill-rule:nonzero;stroke:none"
           d="m 9779.92,16277.8 c -39.21,11.6 -78.33,19.6 -115.87,21.4 -17.04,0.8 -35.59,0.4 -55.1,-0.7 -1.77,-12.2 -3.27,-24.4 -5.74,-36.4 -4.33,-20.7 -10.69,-40.2 -19.17,-58.2 24.82,1.1 48.84,1.3 70.74,-0.6 63.94,-5.7 124.61,-20.3 180.6,-39.7 -23.49,22.6 -40.18,51 -49.81,85 -2.47,9.6 -3.79,19.5 -5.65,29.2" /></g><g
         transform="scale(1.11856)"
         id="g182"><path
           id="path184"
           style="fill:#ffffff;fill-opacity:1;fill-rule:nonzero;stroke:none"
           d="m 10183.5,16288.6 c -28.1,1.8 -56.8,5.6 -85,11.4 91.1,-49.5 159.3,-104.2 193.4,-134.8 6,38.5 9.4,71 10.7,94.8 0,0 -3.7,2.9 -9.3,7.2 -7.1,5.3 -18,13.4 -32.4,23.7 -25.8,-2.8 -51.9,-3.8 -77.4,-2.3" /></g><g
         transform="scale(1.13016)"
         id="g186"><path
           id="path188"
           style="fill:#ffffff;fill-opacity:1;fill-rule:nonzero;stroke:none"
           d="m 9830.88,16287.3 c 16.99,-59.8 54.24,-92.9 112.37,-112.1 56.72,-18.7 116.95,-28.5 176.75,-27 -70.1,47.3 -179.49,113.3 -291.77,151.8 0.97,-4.2 1.5,-8.5 2.65,-12.7" /></g><g
         transform="scale(1.1321)"
         id="g190"><path
           id="path192"
           style="fill:#ffffff;fill-opacity:1;fill-rule:nonzero;stroke:none"
           d="m 9105.06,16183 c 19.08,-19.6 43.55,-33.9 74.11,-44 9.1,-3 18.46,-5.3 27.74,-7.9 105.91,32.1 236.73,65.3 348.91,74.7 15.72,28.5 23.41,61.6 27.73,94.2 -146.27,-14.1 -340.34,-71.1 -478.49,-117" /></g><g
         transform="scale(1.12329)"
         id="g194"><path
           id="path196"
           style="fill:#ffffff;fill-opacity:1;fill-rule:nonzero;stroke:none"
           d="m 9078.39,16189.4 c 0,0 63.56,24.7 154.45,53.7 -8.98,3.4 -18.07,6.5 -26.52,10.6 -24.48,11.5 -43.89,27.2 -59.2,46.3 -54.57,-18.5 -98.02,-34.3 -122.5,-43.5 5.61,-3.3 11.3,-6.4 16.91,-9.8 28.85,-17.6 2.41,-63 -26.53,-45.4 -5.16,3.2 -10.5,6 -15.66,9.1 l -30.09,-347.6 -3.48,-40.5 c 1.52,-1.8 3.03,-3.6 4.54,-5.3 4.1,-4.8 8.1,-9.7 12.29,-14.3 l 3.65,-4.6 c 13.35,-5.1 22.44,-17.5 18.34,-32.3 -2.67,-10 -12.82,-18.4 -23.41,-19.3 8.63,-10.7 19.23,-23.6 32.93,-39.5 l 64.28,482.4" /></g><g
         transform="scale(1.11559)"
         id="g198"><path
           id="path200"
           style="fill:#a6ded4;fill-opacity:1;fill-rule:nonzero;stroke:none"
           d="m 9296.49,16141.3 c 141.8,33 281.28,87.7 427.57,97.6 155.61,10.5 292.34,-49.1 429.34,-115.3 30.6,-14.8 57.4,30.8 26.7,45.6 -139.6,67.5 -281.78,130.8 -440.35,123.5 -156.96,-7.2 -305.67,-65.1 -457.25,-100.4 -33.17,-7.7 -19.18,-58.7 13.99,-51" /></g><g
         transform="scale(1.09419)"
         id="g202"><path
           id="path204"
           style="fill:#a6ded4;fill-opacity:1;fill-rule:nonzero;stroke:none"
           d="m 10270.6,16235.6 c -234.7,-11 -469.54,7.9 -699.48,57.2 -33.9,7.2 -48.34,-44.8 -14.35,-52 234.52,-50.2 474.33,-70.3 713.83,-59.1 34.6,1.6 34.8,55.5 0,53.9" /></g><g
         transform="scale(1.07694)"
         id="g206"><path
           id="path208"
           style="fill:#a6ded4;fill-opacity:1;fill-rule:nonzero;stroke:none"
           d="m 10284.9,16193.5 c 0.2,13.5 -12.8,29.1 -27.4,27.4 -132.6,-15.5 -267.36,5.7 -387.7,63.8 -31.66,15.3 -59.43,-31.9 -27.67,-47.3 128.79,-62.3 272.97,-88 415.37,-71.3 14.7,1.8 27.2,11.4 27.4,27.4" /></g><g
         transform="scale(1.12914)"
         id="g210"><path
           id="path212"
           style="fill:#ffffff;fill-opacity:1;fill-rule:nonzero;stroke:none"
           d="m 8761.06,16289.9 c 16.83,-25.2 31.77,-51.5 45.81,-78.4 49.04,-27.6 97.67,-55.9 145.85,-85 5.13,-3.1 10.45,-6 15.59,-9.1 28.78,-17.5 55.08,27.7 26.39,45.1 -5.58,3.4 -11.25,6.5 -16.83,9.8 -73.6,44.5 -148.52,86.7 -224.11,127.7 2.37,-3.4 5.02,-6.7 7.3,-10.1" /></g><g
         transform="scale(1.09992)"
         id="g214"><path
           id="path216"
           style="fill:#ffffff;fill-opacity:1;fill-rule:nonzero;stroke:none"
           d="m 9195.93,16100.8 c 4.19,15.1 -5.09,27.8 -18.73,33 l -3.72,4.7 c -4.28,4.7 -8.36,9.7 -12.55,14.6 -1.54,1.8 -3.09,3.6 -4.64,5.4 -6.36,7.4 -12.81,14.9 -19.18,22.3 -7.45,8.7 -15,17.5 -22.54,26.2 -2.91,3.4 -5.82,6.8 -8.73,10.2 -0.28,0 -0.46,-0.1 -0.73,-0.1 -25.38,-0.1 -48.7,13.3 -69.69,27.5 -23.93,16.3 -47.09,35 -69.41,55.4 -0.06,-0.6 -0.25,-1.2 -0.32,-1.8 29.62,-34.4 59.23,-68.9 88.84,-103.4 17.36,-20.2 34.72,-40.4 52.13,-60.6 16.63,-19.4 31.64,-42.7 56.27,-52.1 3,-1.2 6.09,-1.3 9.09,-1 10.82,0.9 21.19,9.5 23.91,19.7" /></g><g
         transform="scale(1.23324)"
         id="g218"><path
           id="path220"
           style="fill:#b8e7e1;fill-opacity:1;fill-rule:nonzero;stroke:none"
           d="m 7789.68,14942 c -2.16,32.8 2.8,71.9 31.61,87.8 9.41,5.2 20.16,6.9 30.99,6.8 -0.43,5.4 1.89,11.1 8.31,13.4 33.56,12.1 67.56,22.6 101.84,32 -0.23,0.1 -0.53,0.1 -0.77,0.3 -9.3,6.2 -18.88,12 -28.78,17.2 -4.79,2.5 -9.65,4.9 -14.58,7.1 -0.56,0.3 -4.91,2.2 -5.48,2.5 l -5.73,2.3 c -20.55,8 -41.88,13.6 -63.63,17.1 -13.21,2.1 -19.31,18 -16.71,29.4 3.08,13.6 17.13,18.7 29.43,16.7 43.5,-6.8 85.58,-23.3 122.76,-46.9 48.14,124.8 123.93,238.7 219.7,332.1 -32.84,9.8 -64.95,21.6 -96.25,35.7 -12.19,5.5 -14.13,22.3 -8.59,32.7 2.72,5.2 8.74,9.5 14.3,11 6.62,1.9 12.37,0.3 18.45,-2.4 4.06,-1.8 8.03,-3.6 12.17,-5.3 l 3,-1.3 5.27,-2.1 c 7.94,-3.3 15.89,-6.3 23.92,-9.2 16.38,-6 33,-11.3 49.7,-16 6.17,-1.8 10.79,-5.7 13.79,-10.7 54.33,47.6 113.68,89.6 178.07,122.8 55.54,28.8 114.41,50.7 174.82,66.9 -16.05,11.8 -31.7,24.2 -47.44,36.1 -10.29,7.8 -15.73,20.5 -8.59,32.7 6,10.3 22.46,16.4 32.76,8.6 18.89,-14.3 37.62,-28.8 56.68,-42.8 7.94,-5.9 15.73,-10.9 23.68,-13.1 0.89,-0.3 1.29,-0.4 1.54,-0.5 -0.17,0.1 -0.33,0.3 0.56,0.3 l 4.71,0.1 c 0.48,0.2 4.13,0.8 4.37,0.9 l 3.98,1.3 c 12.16,5.2 22.14,16.8 27.25,31.7 6.89,20 7.29,38.6 8.02,60 0.41,13 10.54,23.9 23.92,23.9 12.57,0 24.33,-11 23.92,-23.9 -0.97,-29.6 -4.29,-62.3 -17.19,-89.2 114.82,12.1 231.75,2.3 342.11,-31.4 21,-6.4 41.68,-13.9 62.19,-21.6 -4.05,24.2 -8.11,48.5 -12.16,72.8 -2.19,13.3 3.33,25.1 16.7,29.4 11.44,3.7 27.41,-4.3 29.44,-16.7 5.84,-34.9 11.6,-69.8 17.43,-104.6 0.08,-0.6 -0.08,-1.1 0,-1.7 19.38,-8.2 38.6,-16.7 57.65,-25.4 32.84,-15 66.17,-31.1 91.15,-57.3 15.81,-16.4 29.92,-38.7 40.62,-62 3.89,4.3 6.57,7.3 7.63,8.6 18.65,25.7 32.43,54.9 39.16,86 11.51,53.6 1.38,112 -30.17,157 -47.67,68.7 -126.57,106.6 -173.28,177.3 -44.68,67.7 -72.65,146.2 -126.82,207.5 -59.43,67.2 -152.69,113.4 -241.96,100.2 -112.71,-16.8 -225.02,17.7 -334.33,40.5 -124.3,25.7 -267.58,33.4 -364.48,-48.8 -72.2,-61.2 -105.15,-162.8 -185.38,-213 -55.81,-34.9 -125.18,-38.7 -187.07,-61.3 -114.9,-41.6 -201.11,-153.5 -212.04,-275.3 -10.16,-111.4 36.38,-229.8 -8.66,-332.4 -14.01,-31.7 -36.17,-59.4 -48.85,-91.7 -26.56,-68 -7.36,-145.7 24.88,-211.3 32.24,-65.3 77.07,-124.3 105.27,-191.7 20.16,-47.3 31.63,-98.3 54.09,-144.6 48.45,-99.4 149.31,-171.4 258.97,-184.9 l 6.49,-0.6 c -8.98,31.2 -15.84,62.9 -21.67,94.9 -79.22,96.8 -135.01,219.2 -142.69,336.1" /></g><g
         transform="scale(1.13892)"
         id="g222"><path
           id="path224"
           style="fill:#b8e7e1;fill-opacity:1;fill-rule:nonzero;stroke:none"
           d="m 8536.84,16276.3 c 11.26,-3.1 22.23,-6.9 32.58,-12.2 10.32,-5.2 20.01,-11.7 29.46,-18.7 4.23,18.3 8.42,36.6 13.65,54.6 -25.41,-7.2 -50.65,-15.1 -75.69,-23.7" /></g><g
         transform="scale(1.19245)"
         id="g226"><path
           id="path228"
           style="fill:#ffffff;fill-opacity:1;fill-rule:nonzero;stroke:none"
           d="m 9495.21,16170.7 c -6.03,36 -11.99,72.1 -18.03,108.2 -2.09,12.8 -18.61,21.1 -30.44,17.3 -13.83,-4.5 -19.54,-16.7 -17.27,-30.5 4.19,-25.1 8.38,-50.2 12.57,-75.3 17.87,-6.8 35.56,-13.9 53.17,-21.4 -0.08,0.6 0.09,1.1 0,1.7" /></g><g
         transform="scale(1.19701)"
         id="g230"><path
           id="path232"
           style="fill:#ffffff;fill-opacity:1;fill-rule:nonzero;stroke:none"
           d="m 9007.28,16275.4 c 0.42,13.3 -11.7,24.6 -24.65,24.6 -13.78,0 -24.22,-11.3 -24.64,-24.6 -0.76,-22.1 -1.17,-41.2 -8.27,-61.9 -5.26,-15.4 -15.54,-27.3 -28.07,-32.6 l -4.1,-1.4 c -0.25,0 -4.01,-0.7 -4.51,-0.9 l -4.84,-0.1 c -0.92,0 -0.75,-0.2 -0.59,-0.3 -0.25,0.1 -0.67,0.3 -1.58,0.5 -8.19,2.2 -16.21,7.4 -24.4,13.5 -19.63,14.4 -38.93,29.4 -58.39,44.1 -10.61,8.1 -27.57,1.7 -33.75,-8.8 -7.36,-12.7 -1.76,-25.7 8.85,-33.7 16.21,-12.3 32.33,-25.1 48.87,-37.2 46.7,12.6 94.24,21.7 142.36,26.8 13.28,27.7 16.71,61.5 17.71,92" /></g><g
         transform="scale(1.17582)"
         id="g234"><path
           id="path236"
           style="fill:#ffffff;fill-opacity:1;fill-rule:nonzero;stroke:none"
           d="m 8636.52,16248.7 c -3.15,5.2 -7.99,9.4 -14.46,11.2 -17.52,5 -34.95,10.6 -52.13,16.8 -8.42,3.1 -16.76,6.3 -25.09,9.7 l -5.53,2.2 -3.15,1.3 c -4.33,1.9 -8.5,3.7 -12.75,5.6 -6.38,2.9 -12.42,4.5 -19.36,2.6 -5.82,-1.6 -12.14,-6.1 -15,-11.5 -5.8,-11 -3.77,-28.6 9.01,-34.4 32.83,-14.7 66.51,-27.2 100.96,-37.5 12.07,11.8 24.83,22.9 37.5,34" /></g><g
         transform="scale(1.14825)"
         id="g238"><path
           id="path240"
           style="fill:#ffffff;fill-opacity:1;fill-rule:nonzero;stroke:none"
           d="m 8566.21,16239.6 c 1,2.7 2.34,5.2 3.35,7.8 -39.93,25.4 -85.13,43.1 -131.85,50.5 -13.22,2.1 -28.3,-3.4 -31.61,-17.9 -2.79,-12.4 3.76,-29.4 17.95,-31.7 23.35,-3.7 46.27,-9.8 68.34,-18.3 l 6.15,-2.5 c 0.61,-0.3 5.28,-2.4 5.89,-2.6 5.29,-2.5 10.51,-5 15.66,-7.7 10.62,-5.6 20.92,-11.8 30.91,-18.5 0.25,-0.2 0.58,-0.2 0.83,-0.3 0.32,0.1 0.62,0.2 0.95,0.2 4.45,13.7 8.38,27.6 13.43,41" /></g><g
         transform="scale(1.18936)"
         id="g242"><path
           id="path244"
           style="fill:#ffffff;fill-opacity:1;fill-rule:nonzero;stroke:none"
           d="m 9579.65,16184.6 c -19.75,9.1 -39.68,17.8 -59.77,26.4 -17.66,7.5 -35.4,14.7 -53.31,21.5 -21.27,8.1 -42.71,15.7 -64.49,22.4 -114.43,35 -235.67,45.1 -354.73,32.5 -48.43,-5.1 -96.27,-14.3 -143.27,-26.9 -62.64,-16.9 -123.67,-39.6 -181.27,-69.4 -66.76,-34.5 -128.3,-78 -184.64,-127.4 -12.52,-11 -25.13,-22 -37.07,-33.6 -99.31,-96.8 -177.9,-214.9 -227.81,-344.4 -0.97,-2.5 -2.27,-4.9 -3.23,-7.5 -4.87,-13 -8.67,-26.4 -12.97,-39.6 38.88,10.6 78.14,19.7 117.64,27.8 24.22,48.8 51.7,95.9 82.65,140.8 3.86,5.5 7.22,11.4 11.18,16.9 53.64,74.2 117.71,141.3 191.19,196.1 15.05,11.2 30.69,21.9 46.58,32.3 23.21,15 47.25,28.9 72.14,40.4 41.28,18.9 81.22,43.5 124.44,58.8 24.97,9 51.03,15.1 77.35,20.1 95.68,18.9 193.8,23.7 290.74,15.5 34.73,-2.8 69.12,-7.5 103.33,-13.7 16.91,-3.1 33.47,-7.7 50.2,-11.6 47.59,-11.1 94.75,-24.4 140.41,-42 57.17,-22.2 78.95,-53.8 104.51,-106.3 1.01,-1.9 1.93,-3.7 2.94,-5.8 -1.76,3.7 28.67,36.4 43.89,53 -11.1,24.2 -25.72,47.3 -42.12,64.3 -25.9,27.1 -60.45,43.9 -94.51,59.4" /></g><g
         transform="scale(1.14098)"
         id="g246"><path
           id="path248"
           style="fill:#ffffff;fill-opacity:1;fill-rule:nonzero;stroke:none"
           d="m 8715.36,16300 c -39.74,-8.5 -79.22,-18.2 -118.32,-29.3 -5.22,-18 -9.41,-36.2 -13.62,-54.5 26.8,-19.6 50.04,-45.2 70.35,-72.5 2.96,10.8 6.78,22.2 10.84,33.7 1.05,3 1.72,5.7 2.85,8.8 14.21,38.6 30.53,76.4 47.9,113.8" /></g><g
         transform="scale(1.10507)"
         id="g250"><path
           id="path252"
           style="fill:#ffffff;fill-opacity:1;fill-rule:nonzero;stroke:none"
           d="m 8852.44,16300 c 6.51,-35.6 14.16,-71 24.19,-105.8 15.78,-1.4 33.12,0.8 42.12,13.5 3.08,4.4 4.47,9.4 5.2,14.7 0.07,0.6 0.26,1.1 0.32,1.7 -25.33,23.1 -49.44,48.5 -71.83,75.9" /></g><g
         transform="scale(1.13766)"
         id="g254"><path
           id="path256"
           style="fill:#f68168;fill-opacity:1;fill-rule:nonzero;stroke:none"
           d="m 8629.19,15938.7 c -4.14,1.6 -8.36,3 -12.64,4.1 l -6.32,1.4 h -0.47 l -2.76,0.2 c -16.68,0.5 -16.71,26.4 0,25.9 21.65,-0.7 42.89,-11.4 61.32,-21.9 6.68,-3.8 13.33,-8.2 19.92,-12.6 -12.31,28.7 -25.77,56.8 -41.15,84 -18.57,32.9 -39.23,64.6 -61.95,94.8 -20.96,27.8 -44.13,54 -76.66,68.2 -15.26,6.6 -2.05,29 13.1,22.4 33.09,-14.5 57.6,-40.7 79.31,-68.8 23.97,-31 45.75,-63.7 65.3,-97.7 39.93,-69.4 70.27,-144.1 90.68,-221.4 4.25,-16.2 -20.78,-23.1 -25.03,-6.9 -7.12,26.9 -15.86,53.4 -25.41,79.5 -1.87,0.6 -3.96,0.7 -5.34,2.2 l -8.61,8.3 -5.37,4.5 -1.29,1 -2.59,1.9 c -8.55,6.4 -17.51,12.2 -26.75,17.5 -4.7,2.7 -9.5,5.3 -14.39,7.7 -5.22,2.6 -8.88,4.2 -12.9,5.7 z m 189.77,-255 c 14.16,12.1 13.01,85 13.8,106.9 1.5,43.2 -13.71,92.2 -25.31,133.4 -16.09,57.5 -38.8,113.2 -66.53,166.1 -13.94,26.7 -28.76,52.8 -45.46,77.8 -2.27,3.4 -4.9,6.7 -7.25,10 -3,4.3 -6.09,8.6 -9.23,12.8 -20.36,27.4 -43.67,53.1 -70.55,72.8 -9.47,6.9 -19.17,13.5 -29.5,18.7 -10.36,5.2 -21.34,9 -32.61,12.1 -6.03,-2 -12.12,-3.9 -18.12,-6 -9.45,-3.4 -15.59,3.7 -16.23,11.6 -11.73,0.1 -23.39,-1.7 -33.59,-7.4 -31.22,-17.2 -36.6,-59.6 -34.26,-95.2 8.33,-126.7 68.81,-259.4 154.67,-364.3 21.76,-26.6 45.17,-51.3 69.78,-73.7 21.58,-19.7 43.97,-37.9 67.1,-53.6 20.3,-13.8 42.84,-26.7 67.39,-26.6 0.26,0 0.43,0.1 0.7,0.1 3.25,0 6.5,0.6 9.49,1.7 2.02,0.7 4.04,1.4 5.71,2.8" /></g><g
         transform="scale(1.13151)"
         id="g258"><path
           id="path260"
           style="fill:#d25262;fill-opacity:1;fill-rule:nonzero;stroke:none"
           d="m 8766.85,15978.6 c -3.41,-3.4 -8.48,-3.7 -13.05,-2.2 9.6,-26.3 18.38,-52.9 25.54,-80 4.28,-16.2 29.45,-9.4 25.17,6.9 -20.52,77.8 -51.03,152.9 -91.18,222.6 -19.65,34.2 -41.55,67.1 -65.64,98.3 -21.83,28.3 -46.48,54.6 -79.75,69.1 -15.23,6.7 -28.52,-15.8 -13.18,-22.5 32.72,-14.3 56.01,-40.6 77.09,-68.5 22.84,-30.4 43.61,-62.3 62.28,-95.3 15.47,-27.4 29,-55.7 41.38,-84.5 11.37,-7.5 22.36,-15.7 31.34,-25.5 4.79,-5.2 5.19,-13.3 0,-18.4" /></g><g
         transform="scale(1.11469)"
         id="g262"><path
           id="path264"
           style="fill:#d25262;fill-opacity:1;fill-rule:nonzero;stroke:none"
           d="m 8834.9,16253.5 c 9.43,-5.4 18.58,-11.3 27.3,-17.8 l 2.65,-1.9 1.31,-1.1 5.48,-4.6 8.79,-8.4 c 1.41,-1.6 3.54,-1.7 5.45,-2.3 4.64,-1.4 9.79,-1.2 13.25,2.3 5.27,5.2 4.86,13.4 0,18.7 -9.12,10 -20.27,18.2 -31.82,25.9 -6.72,4.5 -13.51,8.9 -20.32,12.8 -18.82,10.7 -40.49,21.7 -62.59,22.4 -17.05,0.5 -17.03,-26 0,-26.5 l 2.82,-0.2 h 0.48 l 6.44,-1.4 c 4.37,-1.1 8.68,-2.5 12.91,-4.1 4.1,-1.6 7.84,-3.3 13.17,-5.9 4.98,-2.5 9.88,-5.1 14.68,-7.9" /></g><path
         id="path266"
         style="fill:#f68168;fill-opacity:1;fill-rule:nonzero;stroke:none"
         d="m 8438.01,13349.9 c 270.76,-97.7 539.6,-199.3 808.36,-299.7 41.15,315.4 66.85,632.8 76.06,950.7 4.94,169.9 31.53,376.4 8.25,551.5 -382.4,-15.1 -759.16,32.8 -1137.81,88.1 -13.23,1.9 -27.35,4.3 -37.05,13.5 -9.19,8.7 -12.21,21.5 -13.7,34.4 -9.65,-112.4 14.44,-257.9 15.01,-351.9 3.59,-595.7 33.55,-1191.2 89.77,-1784.2 1.37,-14.4 3.42,-29.1 6.21,-43.6 37.72,339.4 140.77,857.2 184.9,841.2" /><g
         transform="scale(1.03578)"
         id="g268"><path
           id="path270"
           style="fill:#b8e7e1;fill-opacity:1;fill-rule:nonzero;stroke:none"
           d="m 7909.86,14134.8 c 365.57,-53.5 729.32,-99.6 1098.51,-85.1 36.92,1.5 73.83,2.8 110.85,5.6 86.34,407.6 158.73,818.2 217.09,1230.8 42.19,298.4 111.82,713.6 86.41,1013.9 0,0 -201.17,-51.8 -296.72,-84.7 -129.02,-44.3 -296.45,-137.4 -412.88,-209.4 -226.62,-140.2 -419.64,-334.2 -560.87,-560 -231.83,-370.7 -325.85,-820.2 -292.27,-1256.1 0.23,-2.9 0.55,-5.8 0.89,-8.8 1.43,-12.4 4.35,-24.8 13.22,-33.2 9.37,-8.9 23,-11.2 35.77,-13" /></g><path
         id="path272"
         style="fill:#f68168;fill-opacity:1;fill-rule:nonzero;stroke:none"
         d="m 9665.34,11880.8 c 35.53,-6.4 71.15,-12.2 106.74,-18.4 119.82,-20.7 239.82,-40.2 360.12,-57.4 266.8,-38.1 538.3,-67.2 807.7,-41.5 -4.6,4.4 -9.4,8.7 -12.7,13.2 -42.2,57.2 10.4,157.4 19.2,218 16.3,111.7 35.2,222.9 56.7,333.5 12.3,63.3 -31.8,83 25.4,127.9 1.8,1.5 4.6,3.3 6.7,4.9 -369.3,93.7 -731.6,209.2 -1091.14,335.1 -33.23,11.6 -66.42,23.3 -99.6,35.2 -199.8,70.9 -398.94,144.5 -598.09,218.9 -268.76,100.4 -537.6,202 -808.36,299.7 -44.13,16 -147.18,-501.8 -184.9,-841.2 -17.64,-158.8 -21.05,-278.6 2.64,-286.3 142.04,-43.3 284.76,-83.7 427.98,-121.8 324.59,-86.4 651.99,-159.9 981.61,-219.8" /><path
         id="path274"
         style="fill:#f68168;fill-opacity:1;fill-rule:nonzero;stroke:none"
         d="m 11490.3,12614.2 c -4.2,2.9 -8.3,5.7 -13,8.3 -52.6,28.9 -118.2,9.2 -170.5,-11.4 -68.4,-26.8 -211.4,-105 -271.6,-150.1 -2.1,-1.6 -4.9,-3.4 -6.7,-4.9 -57.2,-44.9 -13.1,-64.6 -25.4,-127.9 -21.5,-110.6 -40.4,-221.8 -56.7,-333.5 -8.8,-60.6 -61.4,-160.8 -19.2,-218 3.3,-4.5 8.1,-8.8 12.7,-13.2 47.2,-44.1 155.3,-78.5 208.6,-97.6 49.9,-18 101.6,-30.9 154,-39.8 33.8,-5.7 68,-9.4 102.2,-11.2 102.4,-5.5 205.6,5.8 303.6,36.1 17.5,5.4 35.6,11.8 48.4,25 28.1,28.8 19.9,75.4 24.5,115.4 10.4,89.1 92.1,161.2 89.5,250.8 -1.6,54 -34.4,104.4 -30,158.2 5,62 58.7,118.8 42.5,178.9 -10.6,39.2 -48,64.5 -84.1,83.1 -66.3,34.2 -136.6,42.7 -204.2,69 -3.9,1.5 -7.3,3.4 -10.8,5.2 -38.3,19.3 -58.2,53.1 -93.8,77.6" /><g
         transform="scale(1.15644)"
         id="g276"><path
           id="path278"
           style="fill:#202148;fill-opacity:1;fill-rule:nonzero;stroke:none"
           d="m 9325.85,15827.5 c -42.8,-38.4 -104.46,-52.3 -160.32,-54.6 -51.27,-2.1 -102.9,5 -152.45,18.6 -9.08,2.5 -18.24,4.8 -27.15,7.8 -29.92,9.8 -53.87,23.8 -72.55,43.1 -16.78,17.3 -29.49,38.7 -37.35,66.4 -15.23,59.8 -17.39,121.5 -18.34,182.9 -0.43,25.2 -2.51,51 -1.04,76.1 0,0.4 -0.08,0.8 0,1.2 0.7,11.6 3.2,21.1 6.75,29.8 7.7,19.1 21.88,32.2 45.05,41.7 21.44,8.7 43.41,14.5 65.63,19.2 43.24,9.1 87.6,12.2 132.31,13.1 59.58,1 120.28,0.2 179.6,-6.4 0.52,0 1.04,-0.2 1.64,-0.2 25.42,-2.9 52.84,-7.7 75.15,-20.9 27.84,-16.5 32.34,-47.2 32.6,-77.1 0.69,-60.6 -5.02,-122.9 -10.47,-183.3 -0.78,-9.2 -1.9,-18.6 -3.11,-28 -4.24,-31.9 -11.76,-64.4 -27.15,-92.2 -7.53,-13.7 -16.86,-26.4 -28.8,-37.2 z m 82.93,131.5 c 2.85,19.7 5.1,39.5 6.57,59.6 -0.34,-0.2 -0.78,-0.3 -1.12,-0.5 -6.75,-2.7 -14.7,3 -16.43,9.3 -2.08,7.5 2.59,13.8 9.34,16.5 3.37,1.3 6.83,2.5 10.2,3.8 1.82,33.2 2.77,66.3 4.24,98.8 2.42,53.3 -5.19,104.7 -58.63,128.5 -24.65,11 -51.97,16.6 -79.9,19.8 -37.62,4.2 -76.44,3.8 -111.9,4.5 -18.85,0.4 -37.87,0.7 -56.89,0.6 -63.04,-0.2 -126.6,-4.5 -186.35,-24.2 -27.41,-9.1 -58.11,-18.9 -77.39,-41.8 -19.46,-23.3 -21.02,-54.3 -20.5,-83.7 2.25,0.4 4.58,0.7 6.92,1.1 16.86,2.7 24.04,-23.1 7.09,-25.7 -4.5,-0.7 -9.08,-1.5 -13.57,-2.2 1.55,-74.3 1.29,-149.1 19.8,-221.7 7.52,-26.2 18.93,-49.4 34.67,-68.9 14.88,-18.6 33.73,-33.9 57.51,-45 8.21,-3.9 17.03,-7 25.76,-10.2 47.74,-18.2 99.97,-27.8 150.21,-30.9 63.38,-3.9 130.22,3.8 186.69,34.4 37.36,20.2 62.69,49.8 79.29,85.3 8.31,17.6 14.53,36.6 18.77,56.9 2.42,11.8 3.89,23.7 5.62,35.7" /></g><g
         transform="scale(1.1571)"
         id="g280"><path
           id="path282"
           style="fill:#202148;fill-opacity:1;fill-rule:nonzero;stroke:none"
           d="m 10011.7,16265.5 c 25.9,-2.8 54,-7.6 76.8,-21.1 13.6,-8 21.5,-19.5 26.1,-32.6 4.9,-0.1 9.7,0 14.6,-0.2 17.1,-0.7 17.1,-27.4 0,-26.7 -3.1,0.2 -6.1,0 -9.1,0.1 0.5,-5.8 0.9,-11.7 1,-17.7 0.6,-60.5 -5.1,-122.8 -10.5,-183.1 -4.9,-55.4 -15.5,-118.3 -59.1,-157.3 -25.6,-23 -58.05,-36.4 -91.75,-44.6 -22.73,-5.6 -45.98,-9.1 -68.45,-10.1 -2.25,0 -4.58,0.2 -6.91,0.1 -58.34,-1.5 -117.19,8.1 -172.59,26.4 -56.78,18.7 -93.17,51 -109.76,109.4 -1.12,4.2 -1.64,8.3 -2.59,12.5 -12.53,55.9 -14.86,113.2 -15.82,170.3 -0.34,25.6 -2.5,51.8 -1.03,77.2 1.03,17.4 5.44,31 12.96,42.2 8.47,12.6 21,22 38.81,29.3 39.23,16 79.85,23.6 121.07,27.7 25.41,2.6 51.08,4.1 76.83,4.6 48.49,0.8 97.58,-0.4 146.15,-4.1 11.06,-0.9 22.28,-1.1 33.28,-2.3 z m -331.7,15.8 c -8.73,-2.3 -17.55,-3.7 -26.1,-6.5 -20.14,-6.6 -41.92,-13.8 -59.72,-26.1 -6.48,-4.5 -12.53,-9.6 -17.63,-15.7 -22.9,-27.3 -21.18,-65.5 -20.31,-98.9 0.77,-32.6 1.29,-65.4 2.68,-98 6.74,-3.7 13.31,-7.9 19.53,-13 5.62,-4.6 4.75,-14.2 0,-18.9 -5.01,-5 -12.1,-4.3 -17.54,-0.5 1.81,-24.8 5.18,-49.5 9.85,-74 1.81,-9.6 3.11,-19.2 5.53,-28.6 9.42,-33.3 25.75,-61.1 48.74,-83.2 12.45,-11.9 26.27,-22.7 43.3,-30.7 29.38,-13.9 61.27,-23.4 93.77,-30.1 27.31,-5.6 55.05,-9.3 82.19,-11 24.71,-1.5 49.86,-0.5 74.84,2.1 12.18,1.4 24.28,3.3 36.3,5.9 26.18,5.6 51.87,13.6 75.47,26.4 55.8,30.3 85.4,81 97.9,142.1 14.9,72.5 15.1,149.5 18.5,223.1 2.4,53.3 -5.2,104.6 -58.7,128.5 -34.5,15.4 -74.4,20.4 -114.07,22.4 -26.45,1.3 -52.89,1.3 -77.61,1.8 -72.17,1.6 -146.57,0.9 -216.92,-17.1" /></g><g
         transform="scale(1.13984)"
         id="g284"><path
           id="path286"
           style="fill:#202148;fill-opacity:1;fill-rule:nonzero;stroke:none"
           d="m 9534.7,16260.9 c 1.75,-6.4 9.82,-12.2 16.67,-9.4 0.35,0.1 0.79,0.2 1.14,0.4 26.58,10.6 53.43,20.7 82.56,18.2 24.56,-2.1 49.91,-7.6 69.3,-23.5 0.44,-0.3 0.88,-0.2 1.32,-0.5 5.52,-3.9 12.72,-4.7 17.81,0.5 4.82,4.8 5.7,14.5 0,19.1 -6.32,5.2 -12.99,9.5 -19.83,13.2 -19.21,10.3 -40.36,15.3 -62.9,17.7 -30.45,3.4 -58.34,-4.5 -86.24,-15.1 -3.43,-1.3 -6.94,-2.5 -10.36,-3.9 -6.84,-2.7 -11.58,-9.1 -9.47,-16.7" /></g><g
         transform="scale(1.15092)"
         id="g288"><path
           id="path290"
           style="fill:#202148;fill-opacity:1;fill-rule:nonzero;stroke:none"
           d="m 10046.5,16296.6 c -4.3,-0.3 -7.7,-2.5 -10.1,-5.6 -1.8,-2.2 -3.4,-4.6 -3.4,-7.8 0,-3.2 1.5,-6.3 3.6,-8.8 2.5,-2.9 6,-4.9 9.9,-4.6 42.5,3 85.2,3.5 127.9,2.1 3,-0.1 6,0 9.2,-0.1 17.2,-0.7 17.2,26.1 0,26.8 -5,0.2 -9.9,0.1 -14.7,0.2 -40.9,1.2 -81.7,0.7 -122.4,-2.2" /></g><g
         transform="scale(1.14608)"
         id="g292"><path
           id="path294"
           style="fill:#202148;fill-opacity:1;fill-rule:nonzero;stroke:none"
           d="m 8465.56,16168.6 c 5.96,2.2 12,4 17.98,6.1 24.89,8.5 49.96,16.4 75.21,23.5 38.94,11.1 78.24,20.7 117.8,29.2 26.12,5.6 52.33,10.9 78.6,15.8 51.56,9.5 103.39,17.8 155.13,26 4.54,0.7 9.17,1.4 13.7,2.1 17.1,2.7 9.86,28.7 -7.15,26 -2.36,-0.3 -4.72,-0.7 -6.98,-1.1 -47.99,-7.5 -95.98,-15.3 -143.8,-23.8 -25.04,-4.5 -50.09,-9.2 -75.04,-14.4 -40.98,-8.4 -81.73,-17.8 -122.07,-28.7 -0.33,-0.1 -0.63,-0.2 -0.95,-0.3 -36.9,-10.1 -73.48,-21.4 -109.6,-34.4 -6.9,-2.5 -9.4,-8.6 -8.94,-14.4 0.63,-7.8 6.73,-15 16.11,-11.6" /></g></g></g></svg>